<?xml version="1.0" standalone="no"?>
<!DOCTYPE svg PUBLIC "-//W3C//DTD SVG 1.1//EN" "http://www.w3.org/Graphics/SVG/1.1/DTD/svg11.dtd" >
<svg xmlns="http://www.w3.org/2000/svg">
<metadata>Generated by IcoMoon</metadata>
<defs>
<font id="s-iconfont" horiz-adv-x="1024">
<font-face units-per-em="1024" ascent="896" descent="-128" />
<missing-glyph horiz-adv-x="1024" />
<glyph unicode="&#x20;" horiz-adv-x="0" d="" />
<glyph unicode="&#xe671;" glyph-name="arrow-down-solid" d="M787.5 497.501l-274.256-274.256-274.256 274.256z" />
<glyph unicode="&#xe672;" glyph-name="arrow-up-solid" d="M236.5 270.499l274.256 274.256 274.256-274.256z" />
<glyph unicode="&#xe673;" glyph-name="arrow-left" d="M751.172 10.65l-373.701 373.7 373 373c1.784 1.784 1.93 4.53 0.328 6.133l-63.653 63.653c-1.604 1.603-4.349 1.456-6.134-0.329l-439.225-439.224c-1.785-1.785-1.931-4.53-0.329-6.134l440.257-440.257c1.785-1.785 4.532-1.931 6.134-0.329l63.653 63.653c1.602 1.604 1.455 4.35-0.33 6.134z" />
<glyph unicode="&#xe674;" glyph-name="arrow-right" d="M329.357-63.694l-68.071 68.759 375.184 378.93-375.184 378.933 68.071 68.766 433.356-437.628v-20.135l-433.356-437.625z" />
<glyph unicode="&#xe675;" glyph-name="search" d="M984.998-7.306c-83.993 84.028-203.032 203.037-217.73 217.732 51.81 69.552 82.479 155.784 82.479 249.175 0 230.603-186.903 417.487-417.468 417.487s-417.507-186.883-417.507-417.486c0-230.565 186.943-417.507 417.507-417.507 94.6 0 181.847 31.477 251.853 84.52 16.328-16.135 135.615-134.046 219.048-217.443 24.816-24.819 47.113-24.586 69.452-2.214 13.61 13.538 1.083 1.050 14.657 14.618 22.877 22.882 20.355 48.471-2.29 71.118zM431.658 122.479c-186.515 0-337.743 151.228-337.743 337.744 0 186.553 151.228 337.704 337.743 337.704s337.744-151.151 337.744-337.704c0-186.515-151.228-337.744-337.744-337.744z" />
<glyph unicode="&#xe698;" glyph-name="logo" horiz-adv-x="1595" d="M1587.354 896c4.274-2.616 4.721-7.432 7.56-11.292l-9.569-10.367-77.416-73.365c-51.037-50.781-108.453-98.341-153.907-154.386l-124.625-130.781-88.772-99.777c-111.483-139.075-235.406-271.611-318.213-438.66l-2.839 1.882-293.652 365.231 80.255 88.485 5.678-4.721 146.475-165.646c13.046-16.236 40.351-51.483 58.533-60.255 8.708 21.244 27.273 34.131 40.606 50.845 40.096 50.239 89.314 92.504 129.346 142.137 25.693 31.648 53.514 59.681 83.876 84.745l1.004 0.805 59.49 56.491 71.77 66.986c67.432 54.035 131.005 113.206 201.116 164.721l117.193 83.636 66.092 43.285zM776.255 803.751c109.601-11.834 182.871-36.651 251.993-85.646 17.99-12.759 39.745-25.837 52.887-43.285l-15.12-15.949-72.568-67.719c-40.128 29.92-63.126 57.767-118.979 75.311-28.708 9.027-60.096 11.292-98.214 11.292-147.432 0-219.202-76.555-284.21-158.15l-76.555-88.485c-34.131 5.678-89.601 13.301-128.485 3.732-97.735-24.179-190.207-125.518-161.467-265.454 4.708-24.475 13.247-46.256 25.062-65.838l-0.501 0.894c28.262-45.167 73.365-85.104 131.26-100.734 34.418-9.314 82.456-5.646 124.625-5.646h223.923l101.021-125.199h-280.414c-55.885 0-117.416-3.828-164.306 6.603-87.241 19.362-162.679 60.606-208.676 121.435-24.102 31.064-44.201 66.872-58.577 105.466l-0.912 2.796c-32.153 90.175-17.927 178.405 15.949 255.183 53.588 120.957 167.623 199.968 339.936 199.553 11.324 31.483 40.893 54.003 60.415 78.118 45.933 56.683 144.178 117.671 222.839 142.137 25.805 8.038 53.365 11.962 82.137 16.938l36.81 2.807zM1299.38 398.042c34.354 0 64.848-11.228 89.697-21.659 97.225-40.766 200.095-161.021 155.789-305.933-11.649-37.796-28.724-70.671-50.633-99.692l0.585 0.809c-34.322-45.391-90.367-76.3-153.907-92.249-41.85-10.526-99.139-6.603-150.143-6.603h-262.615v0.925l66.986 124.402h226.475c36.651 0 83.732-5.295 114.258 3.764 28.357 8.421 52.568 29.187 68.931 49.888 63.445 80.223 7.241 195.885-67.974 218.373-35.694 10.686-103.030 4.019-146.348 3.764l1.882 1.882 25.518 31.898c25.072 32.089 56.778 58.533 81.212 90.367z" />
<glyph unicode="&#xe699;" glyph-name="logo-text" horiz-adv-x="3259" d="M666.605 320.707q153.665-171.334 305.3-363.449l-77.916-58.15q-37.366 51.379-74.463 100.187-372.789-12.997-629.554-29.582c-31.698-3.626-60.234-9.453-87.822-17.504l3.677 0.92-41.226 95.516c40.933 19.67 75.416 46.596 103.129 79.422l0.376 0.457c71.422 86.089 139.452 181.73 200.199 282.269l5.93 10.575h-374.347v76.9h1015.409v-76.832h-528.352q-155.697-232.055-268.947-366.563 354.107 8.732 545.681 16.584-82.587 105.332-165.647 203.487zM96.487 817.107h821.397v-76.832h-821.397zM1160.026 686.254h81.232v-814.154h-81.232zM1211.947 838.904l59.165 52.937q57.066-54.155 150.552-151.634l-67.694-59.165q-89.018 104.113-142.021 157.863zM1398.173 564.744h440.010v-415.37h-365.547v-59.165h-74.463zM1763.72 487.91h-291.084v-261.705h291.084zM1485.431 747.518v77.848h594.015v-802.715q0-150.618-136.065-150.552-88.002 0-170.318 2.098-4.197 31.139-16.584 84.144 86.174-6.229 166.121-6.229 75.75 0 75.818 81.232v714.17zM2229.86 502.397h327.097c21.226 30.085 41.51 64.448 58.983 100.428l1.941 4.43h-327.639v71.687h358.236c24.564 61.388 45.772 134.182 60.061 209.424l1.202 7.602 86.174-17.668q-27.077-107.497-59.705-199.358h453.549v-71.621h-480.626c-17.292-40.962-35.195-75.414-55.436-108.272l1.958 3.414h586.702v-71.621h-287.631q114.742-131.394 304.284-170.318-30.124-38.45-61.263-83.060c-81.33 27.952-151.667 67.818-212.988 118.25l1.172-0.936q-3.113-58.69-8.326-126.655-10.424-125.708-130.852-126.723-48.808-1.084-126.723 3.113c-3.547 31.466-9.019 59.663-16.494 87.033l0.924-3.972c35.418-5.633 77.029-9.362 119.322-10.337l1.104-0.020q71.621-1.084 75.818 61.263 3.113 28.026 4.129 62.279h-354.107v-208.7q0-66.476 65.392-66.476h331.294q85.158 0 100.729 48.808c9.856 32.17 17.628 70.211 21.827 109.322l0.241 2.78c21.401-10.030 47.895-20.256 75.127-28.817l4.82-1.307q-14.555-68.506-28.026-112.168-28.026-91.387-152.65-91.387h-364.734q-135.050 0-134.982 131.868v261.773c-57.947-48.424-122.946-92.202-192.256-128.926l-6.089-2.942q-28.026 34.253-62.279 68.506 177.561 81.232 291.084 207.684h-270.776zM2357.599 831.594l59.165 47.792q73.718-70.605 133.966-134.982l-66.476-55.034q-58.15 70.605-126.655 142.226zM2496.777 310.35h471.489c-39.186 35.562-73.724 75.046-103.378 118.15l-1.48 2.277h-256.086c-33.818-44.666-70.087-84.069-109.774-119.746l-0.771-0.682zM2906.935 730.052c43.934 44.961 83.925 94.176 119.169 146.836l2.341 3.716 72.703-44.679c-43.189-56.222-86.036-105.977-131.435-153.262l0.582 0.612z" />
<glyph unicode="&#xe69c;" glyph-name="reduce" d="M2.276 434.972h1019.449v-101.945h-1019.449v101.945z" />
<glyph unicode="&#xe69d;" glyph-name="fold-down" d="M891.665 597.032c-12.747 12.583-33.249 12.519-45.866-0.198l-332.35-335.394-336.989 333.969c-12.747 12.618-33.249 12.524-45.901-0.192-12.623-12.751-12.524-33.284 0.192-45.906l358.169-354.928c0.554-0.548 1.267-0.678 1.816-1.197 0.134-0.127 0.163-0.291 0.294-0.421 5.858-5.815 13.927-9.41 22.837-9.41 0 0 0.001 0 0.001 0v0c8.336 0 16.708 3.212 23.033 9.602l354.928 358.17c12.651 12.75 12.553 33.284-0.164 45.905zM891.665 597.032" />
<glyph unicode="&#xe69e;" glyph-name="add" d="M1024 433.552h-462.448v462.448h-99.088v-462.448h-462.464v-99.104h462.464v-462.448h99.088v462.448h462.448z" />
<glyph unicode="&#xe69f;" glyph-name="fold-up" d="M130.748 192.743c12.748-12.583 33.249-12.519 45.867 0.198l332.35 335.394 336.988-333.968c12.747-12.618 33.249-12.524 45.901 0.192 12.622 12.751 12.524 33.284-0.192 45.907l-358.169 354.926c-0.554 0.548-1.267 0.678-1.816 1.197-0.134 0.127-0.163 0.291-0.293 0.421-5.858 5.816-13.928 9.41-22.838 9.41 0 0-0.001 0-0.001 0v0c-8.336 0-16.706-3.213-23.032-9.603l-354.929-358.172c-12.651-12.749-12.552-33.284 0.164-45.905zM130.748 192.743" />
<glyph unicode="&#xe6a0;" glyph-name="three" d="M0 448h307.2v-128h-307.2v128zM358.4 448h307.2v-128h-307.2v128zM716.8 448h307.2v-128h-307.2v128z" />
<glyph unicode="&#xe6a1;" glyph-name="one" d="M0.021 448.151h1023.959v-127.921h-1023.96v127.92z" />
<glyph unicode="&#xe6a2;" glyph-name="two" d="M0 448h486.4v-128h-486.4v128zM537.6 448h486.4v-128h-486.4v128z" />
<glyph unicode="&#xe6a3;" glyph-name="four" d="M268.288 448h217.6v-128h-217.6v128zM0 448h217.6v-128h-217.6v128zM804.352 448h217.6v-128h-217.6v128zM536.576 448h217.6v-128h-217.6v128z" />
<glyph unicode="&#xe6a4;" glyph-name="icb" horiz-adv-x="1669" d="M834.472 895.842c-460.867 0-834.473-373.606-834.473-834.473 0-0.019 0-0.038 0-0.057v0.003c0-74.034 9.677-108.302 27.762-176.678l1610.038-12.48c20.307 72.131 31.2 110.523 31.2 189.158 0 0.016 0 0.035 0 0.054 0 460.867-373.606 834.473-834.473 834.473-0.019 0-0.039 0-0.058 0h0.003z" />
<glyph unicode="&#xe6a5;" glyph-name="ica" horiz-adv-x="1259" d="M217.385-127.974c-0.039 0-0.085 0-0.131 0-18.605 0-33.699 15.030-33.802 33.61v91.13c0 182.292 110.514 343.8 281.548 411.825l19.369 7.69-16.43 12.807c-61.704 47.915-101.032 122.11-101.040 205.491v0.002c0 144.159 118.1 261.419 263.23 261.419s263.23-117.26 263.23-261.42c-0.008-83.382-39.336-157.577-100.453-205.053l-0.587-0.439-16.429-12.807 19.342-7.69c171.034-67.894 281.55-229.559 281.55-411.825v-91.12c-0.089-18.601-15.189-33.646-33.803-33.646-0.037 0-0.075 0-0.112 0h0.006zM630.181 373.292c-208.905 0-378.863-168.855-378.863-376.395v-57.475h757.62v57.475c0 207.408-169.905 376.264-378.757 376.264zM630.181 828.867c-107.733 0-195.363-87.105-195.363-194.208s87.63-194.207 195.363-194.207 195.389 87.104 195.389 194.207-87.709 194.077-195.441 194.077zM33.937 8.707c-0.032 0-0.069 0-0.107 0-18.609 0-33.709 15.026-33.828 33.608v70.477c-0.001 0.25-0.001 0.546-0.001 0.842 0 135.242 76.638 252.584 188.855 310.966l1.942 0.919 13.91 7.138-10.498 11.521c-35.009 37.969-56.508 88.859-56.61 144.769v0.021c0 114.136 92.302 209.954 206.596 215.65-16.743-22.242-30.655-47.895-40.475-75.489l-0.624-2.011c-57.368-20.758-97.629-74.749-97.655-138.147v-0.003c0.209-59.899 35.764-111.443 86.886-134.882l0.928-0.381c14.828-5.59 23.96-17.558 23.96-31.257s-9.946-26.612-24.774-31.493l-7.873-1.837c-125.272-31.684-216.527-143.324-216.7-276.306v-36.762h43.094c-3.6-19.843-5.981-43.067-6.601-66.73l-0.013-0.613h-70.412zM1155.434 8.707c-0.642 24.247-3.022 47.434-7.027 70.060l0.414-2.822h43.093v36.742c-0.172 132.921-91.341 244.499-214.546 275.796l-1.97 0.424-9.106 2.179c-13.91 4.672-23.751 17.531-23.751 31.23s9.133 25.668 23.252 30.969c52.559 23.436 88.532 75.226 88.532 135.418 0 64.1-40.796 118.672-97.841 139.167l-1.031 0.323c-9.691 29.184-23.283 54.505-40.455 76.941l0.458-0.623c114.347-5.537 206.7-101.46 206.7-215.649-0.134-55.889-21.638-106.729-56.769-144.806l-10.363-11.373 13.883-7.14c114.173-59.297 190.823-176.647 190.823-311.898 0-0.3 0-0.601-0.001-0.901v0.047-70.466c-0.104-18.59-15.198-33.62-33.803-33.62-0.037 0-0.074 0-0.111 0h-70.407z" />
<glyph unicode="&#xe6a6;" glyph-name="icf" d="M193.204 896h637.592v-1024h-637.592z" />
<glyph unicode="&#xe6a7;" glyph-name="close-up" d="M12.99 381.479c0-165.726 134.347-300.095 300.074-300.095h394.194c165.726 0 300.074 134.348 300.074 300.095s-134.348 300.074-300.074 300.074h-394.194c-165.726 0-300.074-134.348-300.074-300.074zM40.405 382.098c0 150.399 121.92 272.339 272.339 272.339 150.399 0 272.339-121.92 272.339-272.339 0-150.399-121.94-272.339-272.318-272.339-150.442 0.022-272.361 121.94-272.361 272.339z" />
<glyph unicode="&#xe6a8;" glyph-name="icd" d="M0 384c0-282.77 229.23-512 512-512s512 229.23 512 512v0c0 282.77-229.23 512-512 512s-512-229.23-512-512v0z" />
<glyph unicode="&#xe6a9;" glyph-name="ice" horiz-adv-x="1142" d="M481.46 693.151h179.268v-63.389h-179.268zM240.087 252.81h179.293v-63.39h-179.293zM481.46 470.862h179.268v-64.697h-179.268zM857.343 494.157h57.32v-179.268h-57.32zM857.343 252.809h57.32v-179.269h-57.32zM1062.57-68.11v761.428h-282.465v202.682h-661.965v-964.109h-118.14v-59.843h1142.14v59.842zM722.83-68.11h-543.561v904.195h543.588zM1001.418-68.11h-221.29v703.988h221.29zM481.458 252.808h179.27v-63.39h-179.27zM240.088 470.862h179.292v-64.697h-179.293zM240.088 693.152h179.292v-63.39h-179.293z" />
<glyph unicode="&#xe6aa;" glyph-name="icg" horiz-adv-x="1043" d="M924.16 577.274l-288.622-202.42-236.283 160.362c-4.824 3.31-10.788 5.287-17.214 5.287-7.902 0-15.107-2.989-20.544-7.897l0.027 0.024-280.038-191.615c-6.256-5.641-10.171-13.774-10.171-22.822 0-16.95 13.74-30.69 30.69-30.69 7.902 0 15.106 2.986 20.546 7.892l-0.027-0.024 262.191 175.578 235.242-159.647c4.822-3.307 10.783-5.281 17.206-5.281 7.334 0 14.067 2.574 19.344 6.868l-0.056-0.044 306.293 216.721c6.998 5.676 11.434 14.274 11.434 23.909 0 16.963-13.751 30.713-30.713 30.713-7.328 0-14.057-2.566-19.336-6.85l0.057 0.045zM973.739 819.036h-421.425v45.512c0 0.039 0 0.085 0 0.131 0 17.25-13.984 31.234-31.234 31.234-0.008 0-0.016 0-0.025 0h0.001c-16.684-0.33-30.083-13.932-30.083-30.664 0-0.002 0-0.004 0-0.006v0-46.294h-421.424c-38.413 0-69.552-31.14-69.552-69.552 0 0 0-0.001 0-0.001v0-572.658c0-0.001 0-0.001 0-0.002 0-38.413 31.14-69.552 69.552-69.552h421.426v-34.972l-190.466-144.321c-7.688-5.642-12.622-14.645-12.622-24.8 0-16.941 13.733-30.674 30.674-30.674 6.786 0 13.057 2.203 18.137 5.934l-0.085-0.060 0.935 0.716 153.428 116.263s9.955 7.303 18.65 13.324c3.316 2.336 7.44 3.733 11.889 3.733s8.573-1.397 11.955-3.777l-0.066 0.044 18.91-13.26 153.428-116.262c5.269-4.394 12.112-7.062 19.578-7.062 16.938 0 30.67 13.731 30.67 30.67 0 10.445-5.222 19.671-13.197 25.209l-0.101 0.066-190.466 144.322v34.906h421.512c0 0 0.001 0 0.001 0 38.413 0 69.552 31.14 69.552 69.552 0 0.001 0 0.001 0 0.002v0 572.746c0 38.413-31.14 69.552-69.552 69.552 0 0-0.001 0-0.001 0v0zM981.954 176.738c0-4.538-3.678-8.216-8.216-8.216h-904.186c-4.538 0-8.216 3.678-8.216 8.216v0 572.746c0.001 4.537 3.679 8.215 8.216 8.215h904.186c4.538 0 8.216-3.678 8.216-8.216v0z" />
<glyph unicode="&#xe6ab;" glyph-name="ich" horiz-adv-x="2148" d="M4.785 173.458l760.822 507.215 545.496-363.664 837.383 578.991-9.57-952.224-47.85-62.206-2014.506-9.57-76.56 62.206 4.785 239.252z" />
<glyph unicode="&#xe6ac;" glyph-name="icc" d="M941.586 421.296c-3.922 13.25-15.985 22.752-30.266 22.752-17.401 0-31.507-14.106-31.507-31.507 0-4.017 0.752-7.858 2.122-11.39l-0.073 0.215c2.413-16.488 3.791-35.522 3.791-54.879 0-0.661-0.002-1.323-0.005-1.983v0.102c0-226.219-183.373-409.591-409.591-409.591s-409.613 183.373-409.613 409.591 183.373 409.591 409.591 409.591c0.423 0.002 0.923 0.003 1.424 0.003 33.297 0 65.627-4.136 96.506-11.922l-2.716 0.58 0.368 0.866c3.785-1.739 8.211-2.753 12.875-2.753 17.389 0 31.485 14.096 31.485 31.485 0 16.589-12.829 30.182-29.108 31.397l-0.105 0.006c-33.247 8.426-71.427 13.291-110.734 13.351h-0.039c-260.885 0-472.605-211.72-472.605-472.605s211.72-472.605 472.605-472.605 472.605 211.72 472.605 472.605c0.004 0.695 0.006 1.517 0.006 2.34 0 26.325-2.277 52.119-6.645 77.194l0.385-2.67zM597.562 507.074c-33.296 25.327-75.458 40.575-121.181 40.575-111.146 0-201.247-90.101-201.247-201.247 0-0.122 0-0.244 0-0.366v0.019-1.45c0-0.004 0-0.009 0-0.014 0-111.193 90.14-201.333 201.333-201.333s201.333 90.14 201.333 201.333c0 0.005 0 0.010 0 0.015v-0.001 1.45c0 0.118 0 0.257 0 0.397 0 43.081-13.561 82.994-36.648 115.703l0.423-0.632 73.401 73.401 124.773-1.883 180.841 185.255-156.28 15.754-16.381 161.95-187.83-180.862 8.158-137.41zM489.906 209.402c-6.081-1.255-7.877-1.71-12.291-2.51-2.418-0.251-5.224-0.394-8.064-0.394-2.326 0-4.629 0.096-6.906 0.284l0.298-0.020c-70.387 6.999-124.903 65.908-124.903 137.549 0 0.141 0 0.283 0.001 0.424v-0.022c0 70.566 56.089 128.56 124.773 136.74 3.672 0.794 8.113 1.431 12.637 1.775l0.347 0.021c6.037 0.39 6.319 0.541 14.066 0.866 23.553-2.33 44.873-10.253 63.13-22.411l-0.506 0.317-91.47-91.383c-5.698-5.722-9.222-13.614-9.222-22.329 0-17.476 14.167-31.643 31.643-31.643 8.715 0 16.607 3.523 22.33 9.223l90.041 90.041c11.807-19.958 18.783-43.985 18.783-69.641 0-0.089 0-0.179 0-0.268v0.014c0.065-70.566-56.003-128.538-124.686-136.631z" />
<glyph unicode="&#xe6ad;" glyph-name="mail" d="M511.245 896c-282.352-0.001-511.244-228.893-511.244-511.245s228.892-511.245 511.245-511.245c281.955 0 510.6 228.247 511.244 510.051v0.062c0.001 0.336 0.001 0.734 0.001 1.132 0 282.353-228.892 511.245-511.245 511.245 0 0-0.001 0-0.001 0v0zM511.245-97.438c-266.725 0-482.948 216.223-482.948 482.948s216.223 482.948 482.948 482.948c266.725 0 482.948-216.223 482.948-482.948v0c0-0.224 0.001-0.49 0.001-0.755 0-266.876-216.131-483.272-482.906-483.702h-0.042zM584.442 359.853c-7.546 8.301-13.206 8.301-21.129 0s-24.902-21.506-37.73-32.825c-3.624-4.341-9.038-7.083-15.092-7.083s-11.468 2.742-15.067 7.052l-0.025 0.031c-10.942 10.187-22.638 19.242-33.58 29.807s-17.733 11.319-27.543 0c-16.979-20.752-35.844-40.371-53.577-60.368-31.316-35.089-62.255-70.178-93.571-104.89-7.923-8.678-6.414-13.206 4.15-16.979 8.373-3.113 18.045-4.915 28.139-4.915 0.454 0 0.907 0.004 1.359 0.011l-0.068-0.001h379.189c0.59-0.016 1.285-0.025 1.982-0.025 10.278 0 20.101 1.948 29.12 5.494l-0.54-0.187c8.301 3.396 10.942 7.169 4.15 15.092zM294.296 544.731c68.669-59.991 137.338-119.982 205.63-180.351 2.575-3.377 6.601-5.534 11.13-5.534s8.555 2.157 11.106 5.5l0.025 0.034c65.273 57.727 130.924 113.191 196.575 172.805 6.414 5.66 19.62 10.187 16.224 18.865s-17.733 9.055-27.92 9.433h-384.472c-0.846 0.035-1.839 0.055-2.837 0.055-7.465 0-14.668-1.123-21.449-3.21l0.516 0.137c-4.15 0-9.81-1.887-11.319-6.414s3.396-8.301 6.791-11.319zM775.357 488.513c0.006 0.413 0.010 0.9 0.010 1.387 0 10.004-1.521 19.652-4.344 28.727l0.183-0.684c-4.905 15.847-8.678 16.601-21.506 5.66l-141.866-123.755c-7.546-6.414-9.055-10.942 0-19.242 28.298-30.939 55.841-62.632 83.384-93.571l66.028-73.197c7.546-8.301 12.074-7.169 15.092 3.396 2.636 8.538 4.154 18.353 4.154 28.522 0 0.319-0.001 0.638-0.004 0.956v-0.049 121.114zM416.165 399.092c-13.96 11.696-27.92 24.147-41.881 37.73l-102.626 87.912c-11.696 10.187-15.469 8.678-20.374-6.414-2.641-8.341-4.163-17.934-4.163-27.882 0-0.544 0.005-1.087 0.014-1.629l-0.001 0.082v-242.228c-0.004-0.331-0.006-0.721-0.006-1.112 0-9.55 1.381-18.778 3.953-27.494l-0.174 0.686c3.773-12.828 7.546-13.96 16.601-3.773l150.921 167.145c4.905 6.791 4.15 11.319-2.264 16.979z" />
<glyph unicode="&#xe6ae;" glyph-name="wechat" d="M512 896c-282.667 0-512-229.12-512-512s229.333-512 512-512 512 229.12 512 512-229.333 512-512 512zM511.147-98.987c-266.667 0-483.84 216.96-483.84 483.84s217.173 483.627 483.84 483.627c266.667 0 483.84-216.96 483.84-483.84s-216.96-483.627-483.84-483.627zM639.147 482.133c-107.093 0-191.573-73.387-191.573-163.413s84.48-163.2 191.573-163.2c22.613 0 45.013 5.76 67.627 11.307l61.653-33.92-17.067 56.107c45.227 33.92 78.933 78.933 78.933 129.707 0.427 90.027-89.6 163.413-191.147 163.413zM577.067 347.093c-11.093 0-22.613 11.093-22.613 22.613s11.307 22.613 22.613 22.613c17.067 0 28.16-11.307 28.16-22.613 0.213-11.52-11.093-22.613-28.16-22.613zM701.013 347.093c-11.093 0-22.4 11.093-22.4 22.613s11.307 22.613 22.4 22.613c17.067 0 28.16-11.307 28.16-22.613 0-11.52-11.307-22.613-28.16-22.613zM624.853 494.080c7.253 0 14.507-0.427 21.76-1.28-19.627 90.667-116.48 158.293-227.2 158.293-123.733 0-225.067-84.48-225.067-191.573 0-61.867 33.707-112.64 90.027-152.107l-22.613-67.84 78.72 39.253c28.16-5.547 50.773-11.307 78.933-11.307 7.040 0 14.080 0.427 20.907 0.853-4.48 15.36-6.827 31.36-7.040 47.147 0.213 98.773 84.693 178.56 191.573 178.56zM503.893 555.307c17.067 0 28.16-11.093 28.16-28.16s-11.093-28.16-28.16-28.16c-17.067 0-33.707 11.307-33.707 28.16s16.853 28.16 33.707 28.16zM346.24 499.2c-16.853 0-33.92 11.307-33.92 28.16s17.067 28.16 33.92 28.16 28.16-11.093 28.16-28.16c0.213-17.067-11.307-28.16-28.16-28.16z" />
<glyph unicode="&#xe6af;" glyph-name="weibo" d="M513.889 896c-283.395 0-513.889-226.716-513.889-510.111s230.494-513.889 513.889-513.889 510.111 226.716 510.111 510.111-226.716 513.889-510.111 513.889zM513.889-97.771c-268.28 0-483.661 215.38-483.661 483.661s215.38 483.661 483.661 483.661c268.28 0 483.661-215.38 483.661-483.661s-219.159-483.661-483.661-483.661zM544.118 344.325c-3.779 7.557-7.557 11.336-11.336 18.893s-11.336 11.336-18.893 15.114l-22.672 11.336c-15.114 3.779-30.229 7.557-45.343 7.557s-30.229-3.779-41.565-11.336c-11.336-3.779-22.672-11.336-34.007-22.672-11.336-7.557-18.893-18.893-22.672-30.229-7.557-11.336-7.557-22.672-7.557-37.786s3.779-26.45 7.557-41.565c11.336-18.893 30.229-34.007 49.122-41.565 22.672-7.557 45.343-11.336 64.236-7.557 11.336 0 22.672 3.779 34.007 11.336 7.557 3.779 15.114 11.336 22.672 18.893s11.336 11.336 15.114 18.893l11.336 22.672c3.779 7.557 3.779 15.114 3.779 22.672v22.672c0 7.557 0 15.114-3.779 22.672zM434.539 253.638c-7.557-7.557-18.893-11.336-34.007-11.336-7.557 0-18.893 3.779-22.672 11.336s-7.557 15.114-3.779 22.672c0 7.557 3.779 18.893 11.336 22.672 7.557 7.557 15.114 11.336 22.672 11.336 11.336 3.779 22.672 0 30.229-7.557s7.557-15.114 7.557-26.45c0-3.779-3.779-15.114-11.336-22.672zM638.583 578.598c-7.557 0-11.336 0-15.114-7.557-3.779-3.779-3.779-7.557-3.779-11.336s3.779-11.336 7.557-11.336c3.779-3.779 11.336-7.557 15.114-7.557 18.893 0 37.786-7.557 52.9-18.893 15.114-15.114 18.893-34.007 18.893-52.9 0-7.557 0-15.114 7.557-18.893 3.779-3.779 7.557-7.557 11.336-7.557s11.336 3.779 11.336 7.557c3.779 7.557 7.557 15.114 7.557 22.672 3.779 30.229-7.557 60.458-26.45 83.129-26.45 15.114-56.679 26.45-86.908 22.672zM823.734 574.819c-11.336 18.893-26.45 37.786-41.565 52.9-18.893 15.114-41.565 26.45-64.236 34.007-26.45 7.557-52.9 11.336-79.351 7.557-11.336 0-18.893-3.779-30.229-7.557-7.557-3.779-11.336-11.336-11.336-18.893s3.779-15.114 7.557-18.893c7.557-7.557 18.893-7.557 26.45-7.557 18.893 0 37.786-3.779 52.9-7.557 18.893-7.557 34.007-15.114 49.122-26.45 15.114-7.557 26.45-22.672 34.007-34.007s11.336-30.229 11.336-45.343c0-7.557 3.779-18.893 7.557-26.45 3.779-3.779 11.336-7.557 18.893-7.557s15.114 3.779 18.893 7.557c7.557 7.557 11.336 18.893 7.557 26.45 7.557 26.45 3.779 52.9-7.557 71.793zM714.155 382.111c-3.779 3.779-11.336 7.557-15.114 7.557l-18.893 11.336-15.114 7.557c-3.779 0-7.557 3.779-7.557 7.557v11.336c0 3.779 3.779 7.557 3.779 11.336s3.779 7.557 3.779 11.336v15.114c0 7.557-3.779 15.114-11.336 22.672-3.779 7.557-11.336 11.336-18.893 11.336-7.557 3.779-18.893 3.779-26.45 3.779-11.336 0-18.893 0-30.229-3.779-7.557 0-11.336-3.779-18.893-3.779l-18.893-7.557c-7.557-3.779-11.336-3.779-18.893-3.779h-18.893v11.336c0 3.779 0 7.557 3.779 15.114 0 3.779 3.779 11.336 3.779 15.114v15.114c0 7.557-3.779 11.336-7.557 15.114l-11.336 18.893c-11.336 3.779-22.672 7.557-34.007 7.557s-22.672-3.779-34.007-7.557-45.343-18.893-64.236-34.007c-22.672-15.114-41.565-30.229-60.458-49.122-18.893-15.114-34.007-30.229-49.122-49.122-11.336-15.114-22.672-26.45-30.229-41.565-7.557-11.336-11.336-22.672-15.114-34.007-3.779-7.557-3.779-18.893-3.779-30.229 0-15.114 0-34.007 3.779-49.122l11.336-34.007c7.557-15.114 18.893-30.229 34.007-45.343 11.336-11.336 26.45-22.672 41.565-30.229s30.229-15.114 45.343-18.893c15.114-7.557 30.229-11.336 45.343-15.114 11.336-3.779 26.45-3.779 37.786-7.557h56.679c11.336 0 26.45 0 41.565 3.779 18.893 3.779 34.007 7.557 49.122 11.336 18.893 3.779 37.786 11.336 52.9 18.893 18.893 7.557 34.007 18.893 49.122 30.229s30.229 30.229 45.343 45.343c7.557 11.336 15.114 22.672 18.893 34.007s7.557 22.672 7.557 37.786c0 11.336 0 22.672-3.779 34.007-3.779 15.114-11.336 22.672-22.672 30.229zM623.469 264.974c-7.557-11.336-15.114-22.672-26.45-34.007-7.557-11.336-18.893-18.893-30.229-26.45s-26.45-15.114-41.565-18.893c-18.893-7.557-37.786-11.336-56.679-11.336-22.672-3.779-45.343-3.779-64.236 0-22.672 3.779-45.343 11.336-64.236 18.893-11.336 3.779-22.672 11.336-34.007 22.672-11.336 7.557-18.893 18.893-22.672 30.229-7.557 11.336-11.336 22.672-11.336 34.007s0 26.45 3.779 37.786c3.779 15.114 11.336 26.45 22.672 37.786 11.336 15.114 26.45 26.45 41.565 34.007 18.893 11.336 37.786 18.893 60.458 22.672 26.45 7.557 52.9 11.336 79.351 7.557 15.114 0 30.229 0 45.343-3.779s26.45-7.557 41.565-11.336c11.336-3.779 22.672-11.336 34.007-22.672 11.336-7.557 18.893-18.893 26.45-34.007s11.336-30.229 11.336-45.343c-3.779-7.557-7.557-22.672-15.114-37.786z" />
<glyph unicode="&#xe6b0;" glyph-name="ic-grid" d="M578.644 420.571h411.429c17.572 0 31.817 14.245 31.817 31.817v0 409.234c0.069 0.787 0.109 1.703 0.109 2.628 0 16.838-13.080 30.622-29.634 31.743l-0.098 0.005h-413.623c-16.767-0.995-29.989-14.836-29.989-31.765 0-0.018 0-0.037 0-0.055v0.003-411.429c-0.002-0.124-0.003-0.271-0.003-0.418 0-16.93 13.223-30.771 29.904-31.761l0.087-0.004zM610.461 486.4l42.057 66.56 172.251 276.114h19.017l-215.771-345.234h-17.554zM641.912 829.44h19.017l-50.469-79.726v29.989zM610.461 807.497v21.943h13.897zM678.484 829.44h19.017l-87.040-138.971v30.72zM715.055 829.44h19.017l-123.611-197.486v30.354zM751.627 829.44h19.017l-160.183-256v29.989zM615.947 553.691l172.251 276.114h19.017l-196.754-314.88v30.354zM957.158 484.571h-19.017l19.749 31.451v-29.989zM920.587 484.571h-19.017l43.154 69.12 13.166 20.846v-29.989zM884.015 484.571h-19.017l43.154 69.12 50.103 79.726v-29.989zM847.444 484.571h-19.017l43.154 69.12 86.674 138.24v-30.354zM810.872 484.571h-19.017l43.154 69.12 123.246 196.023v-30.354zM774.301 484.571h-19.017l43.154 69.12 159.451 256v-30.354zM737.729 484.571h-19.017l43.154 69.12 172.251 276.114h19.017zM701.158 484.571h-19.017l43.154 69.12 172.251 276.114h19.017zM664.587 484.571h-19.017l43.154 69.12 172.251 276.114h19.017zM31.901 418.743h411.429c17.572 0 31.817 14.245 31.817 31.817v0 411.063c0.053 0.686 0.083 1.485 0.083 2.291 0 16.7-12.866 30.395-29.227 31.713l-0.113 0.007h-411.429c-0.792 0.070-1.713 0.11-2.644 0.11-17.572 0-31.817-14.245-31.817-31.817 0-0.811 0.030-1.615 0.090-2.41l-0.006 0.106v-411.063c0-17.572 14.245-31.817 31.817-31.817v0zM68.472 830.171h19.017l-20.114-32.549v30.354zM105.044 830.171h19.017l-57.783-91.063v30.354zM141.615 830.171h19.017l-94.354-149.577v29.989zM178.187 830.171h19.017l-130.926-208.091v29.989zM214.758 830.171h19.017l-167.497-266.606v29.989zM70.301 541.623l179.931 288.183h19.017l-202.971-325.12v29.989zM106.872 541.623l179.931 288.183h19.017l-215.771-345.234h-18.651zM126.621 484.937h-18.651l36.571 56.686 178.834 288.183h19.017zM359.947 829.806h19.017l-215.771-345.234h-18.651l36.571 56.686zM413.707 484.571h-13.166l13.166 21.211zM382.621 484.571h-18.651l36.571 56.686 14.263 22.674v-29.989zM346.049 484.571h-18.651l36.571 56.686 50.834 81.554v-29.989zM309.478 484.571h-18.651l36.571 56.686 87.406 140.069v-30.354zM272.907 484.571h-18.651l36.571 56.686 123.977 198.949v-30.354zM236.335 484.571h-18.651l36.571 56.686 160.549 256v-30.354zM413.707 826.88l-213.943-342.309h-18.651l36.571 56.686 179.931 288.549h17.189zM992.267 349.257h-413.623c-17.572 0-31.817-14.245-31.817-31.817v0-411.429c0-17.572 14.245-31.817 31.817-31.817v0h411.429c0.678-0.051 1.468-0.081 2.265-0.081 16.828 0 30.605 13.065 31.741 29.605l0.005 0.099v413.623c0 17.572-14.245 31.817-31.817 31.817v0zM958.255-62.171h-14.629l14.629 23.040zM926.072-62.171h-19.017l43.886 70.217 7.314 10.24v-29.989zM889.501-62.171h-19.017l43.886 70.217 43.52 69.851v-29.989zM852.929-62.171h-19.017l43.886 70.217 80.091 128.366v-30.354zM816.358-62.171h-19.017l43.886 70.217 116.663 187.246v-30.72zM779.787-62.171h-19.017l43.886 70.217 153.234 245.76v-30.354zM958.255 281.966l-215.040-344.137h-19.017l43.886 70.217 172.983 277.577h16.823zM612.289 285.623h19.017l-20.48-32.914v30.72zM648.861 285.623h19.017l-57.051-91.429v30.354zM685.432 285.623h19.017l-93.623-149.943v28.891zM722.004 285.623h19.017l-130.194-208.457v29.989zM758.575 285.623h19.017l-167.131-267.337v29.989zM621.798 8.046l172.983 277.577h19.017l-203.337-325.486v29.989zM658.369 8.046l172.983 277.577h19.017l-217.234-347.429h-18.651zM694.941 8.046l172.983 277.577h19.017l-217.234-347.429h-18.651zM731.512 8.046l172.983 277.577h19.017l-217.234-347.429h-18.651zM445.524 347.429h-411.063c-17.572 0-31.817-14.245-31.817-31.817v0-409.6c-0.053-0.686-0.083-1.485-0.083-2.291 0-16.7 12.866-30.395 29.227-31.713l0.113-0.007h413.623c17.572 0 31.817 14.245 31.817 31.817v413.623c-0.995 16.767-14.836 29.989-31.765 29.989-0.018 0-0.037 0-0.055 0h0.003zM413.707-62.171h-17.92l17.92 28.526zM377.135-62.171h-17.92l54.491 86.674v-29.989zM340.564-62.171h-17.92l40.229 64 50.834 81.554v-28.526zM303.992-62.171h-17.92l40.229 64 87.406 140.069v-30.354zM267.421-62.171h-17.92l40.229 64 123.977 199.314v-30.354zM230.849-62.171h-17.92l40.229 64 160.549 256v-30.354zM99.924 285.257h19.017l-52.663-84.114v30.354zM65.181 257.829v27.429h17.189zM136.495 285.257h19.017l-90.331-146.286v30.354zM173.067 285.257h19.017l-125.806-202.606v29.989zM209.638 285.257h19.017l-162.377-261.12v30.72zM70.301 2.194l176.64 283.429h19.017l-199.68-320.366v29.989zM106.872 2.194l176.64 283.429h19.017l-216.869-347.794h-19.017zM143.444 2.194l176.64 283.429h19.017l-216.869-347.794h-19.017zM180.015 2.194l176.64 283.429h19.017l-216.869-347.794h-19.017zM216.587 2.194l176.64 283.429h19.017l-216.869-347.794h-19.017z" />
<glyph unicode="&#xe6b1;" glyph-name="false" d="M512 896c282.77 0 512-229.23 512-512s-229.23-512-512-512c-282.77 0-512 229.23-512 512v0c0 282.77 229.23 512 512 512v0zM758.989 212.582l-171.622 171.418 173.67 171.418c3.273 3.616 5.276 8.435 5.276 13.722s-2.003 10.106-5.292 13.739l0.016-0.017-50.176 47.923c-3.404 3.897-8.221 6.484-13.644 6.958l-0.077 0.005c-4.506 0-6.963-2.253-11.469-6.963l-173.67-168.96-173.67 168.96c-4.506 4.71-6.758 6.963-11.469 6.963-5.5-0.479-10.318-3.067-13.701-6.939l-0.021-0.024-47.923-48.128c-3.273-3.616-5.276-8.435-5.276-13.722s2.003-10.106 5.292-13.739l-0.016 0.017 173.67-171.213-173.67-173.67c-4.506-2.253-4.506-6.963-4.506-11.469-0.086-0.64-0.136-1.38-0.136-2.131 0-4.498 1.768-8.583 4.647-11.597l-0.006 0.006 47.923-50.176c3.036-2.868 7.143-4.631 11.661-4.631 0.726 0 1.442 0.046 2.144 0.134l-0.084-0.009c0.597-0.073 1.289-0.115 1.99-0.115 4.539 0 8.668 1.758 11.742 4.63l-0.010-0.009 171.418 173.67 173.67-171.418c4.506-4.506 6.963-6.758 11.469-6.758 5.474 0.423 10.29 2.939 13.705 6.74l0.017 0.019 47.923 47.923c4.121 3.054 6.762 7.901 6.762 13.365 0 0.125-0.001 0.25-0.004 0.375v-0.019c-0.366 5.448-2.811 10.263-6.54 13.709l-0.014 0.013z" />
<glyph unicode="&#xe6b2;" glyph-name="exit" d="M672.437 128.338h-256.338v575.408l-255.887 127.718h512.226v-254.985h64.085v319.52h-704.48v-832.197l384.056-191.803v191.803h320.423v256.338h-64.085v-191.803zM991.958 447.859l-192.254 191.803v-127.718h-319.52v-127.267h319.52v-129.072l192.254 192.254z" />
<glyph unicode="&#xe6b3;" glyph-name="user" d="M468.899 884.093c-35.721 0-30.006-10.954-47.628-13.812-20.484-1.81-39.283-5.348-57.389-10.525l2.141 0.524c-57.63-8.573-78.11-82.396-80.967-109.544s-3.334-103.829 0-142.884c5.239-24.29-13.812-24.29-13.812-24.29-34.292 0-19.051-104.781-19.051-104.781 4.763-26.195 0-39.531 47.628-60.011 17.138-43.826 47.139-79.514 85.317-103.312l0.89-0.517s2.858-44.294 3.81-75.728c-5.239 2.381 16.67-80.491-142.884-103.829s-190.512-74.3-219.088-102.876-27.624-159.553-27.624-159.553h1023.524s-6.668 130.024-34.768 158.601-62.393 79.539-220.993 102.876-132.406 103.829-133.834 106.687c0 12.383 5.715 64.774 5.715 64.774 33.036 29.766 58.769 66.987 74.618 109.053l0.634 1.92c38.102 23.814 52.867 27.148 59.059 55.248 0 0 12.86 104.781-28.1 104.781 0 0-17.146-2.858-11.431 21.909 1.964 19.205 3.084 41.502 3.084 64.060s-1.12 44.854-3.308 66.836l0.224-2.777c-2.858 27.148 5.239 105.258-52.391 115.736-39.531 7.144-43.818-3.81-62.869 0s-41.913 51.914-77.633 51.914z" />
<glyph unicode="&#xe6b4;" glyph-name="move" d="M292.508 896h146.254v-146.254h-146.254zM585.238 896h146.254v-146.254h-146.254zM292.508 603.492h146.254v-146.254h-146.254zM585.016 603.492h146.254v-146.254h-146.031zM292.508 310.762h146.254v-146.254h-146.254zM585.016 310.762h146.254v-146.254h-146.031zM585.016 18.254h146.254v-146.254h-146.031zM292.508 18.254h146.254v-146.254h-146.254z" />
<glyph unicode="&#xe6b5;" glyph-name="ic-list" horiz-adv-x="1180" d="M1122.952-26.081h-1071.808c-25.478-3.173-44.998-24.694-44.998-50.774s19.521-47.601 44.748-50.748l0.25-0.025h1071.808c1.845-0.236 3.98-0.371 6.146-0.371 28.246 0 51.144 22.898 51.144 51.144s-22.898 51.144-51.144 51.144c-2.166 0-4.301-0.135-6.396-0.396l0.25 0.025zM51.144 793.711h1071.808c1.845-0.236 3.98-0.371 6.146-0.371 28.246 0 51.144 22.898 51.144 51.144s-22.898 51.144-51.144 51.144c-2.166 0-4.301-0.135-6.396-0.396l0.25 0.025h-1071.808c-25.478-3.173-44.998-24.694-44.998-50.774s19.521-47.601 44.748-50.748l0.25-0.025zM1122.952 434.959h-1071.808c-25.478-3.173-44.998-24.694-44.998-50.774s19.521-47.601 44.748-50.748l0.25-0.025h1071.808c1.845-0.236 3.98-0.371 6.146-0.371 28.246 0 51.144 22.898 51.144 51.144s-22.898 51.144-51.144 51.144c-2.166 0-4.301-0.135-6.396-0.396l0.25 0.025z" />
<glyph unicode="&#xe6b6;" glyph-name="preview" horiz-adv-x="1316" d="M658.357-128c-363.645 0-621.893 329.179-658.357 512 36.464 182.821 294.712 512 658.357 512s621.893-329.179 658.357-512c-36.464-182.821-294.712-512-658.357-512zM658.357 786.357c-287.22 0-500.761-254.002-545.467-402.357 44.706-148.355 258.248-402.357 545.467-402.357s500.761 254.002 545.467 402.357c-44.706 148.355-258.248 402.357-545.467 402.357zM658.357 164.714c-121.246 0-219.535 98.289-219.535 219.536s98.289 219.536 219.536 219.536c121.246 0 219.536-98.289 219.536-219.536 0-0.088 0-0.175 0-0.263v0.013c0-121.246-98.289-219.536-219.536-219.536v0zM658.357 493.893c-60.554 0-109.643-49.089-109.643-109.643s49.089-109.643 109.643-109.643c60.466 0 109.5 48.946 109.643 109.379v0.014c-0.142 60.497-49.146 109.501-109.629 109.643h-0.013z" />
<glyph unicode="&#xe6b7;" glyph-name="close" d="M623.563 384l375.448 375.448c13.193 14.071 21.297 33.053 21.297 53.927 0 43.588-35.335 78.924-78.924 78.924-20.874 0-39.856-8.104-53.97-21.337l0.043 0.040-375.448-375.448-375.448 375.448c-14.439 15.401-34.912 24.996-57.626 24.996-43.588 0-78.924-35.335-78.924-78.924 0-22.714 9.595-43.187 24.953-57.586l0.043-0.040 375.448-375.448-375.448-375.448c-15.401-14.439-24.996-34.912-24.996-57.626 0-43.588 35.335-78.924 78.924-78.924 22.714 0 43.187 9.595 57.586 24.953l0.040 0.043 375.448 375.448 375.448-375.448c14.337-9.638 31.99-15.383 50.984-15.383s36.647 5.745 51.316 15.593l-0.331-0.209c14.119 14.345 22.836 34.043 22.836 55.777s-8.717 41.431-22.846 55.787l0.010-0.010z" />
<glyph unicode="&#xe6b8;" glyph-name="guide" d="M622.933 79.36c-3.282-0.048-6.435-0.512-9.436-1.342l0.262 0.062-217.173-56.747c-14.396-3.421-24.939-16.17-24.939-31.381 0-1.8 0.148-3.566 0.432-5.286l-0.025 0.187c1.948-17.006 15.995-30.169 33.226-30.719l0.054-0.001c3.35 0.029 6.579 0.494 9.649 1.342l-0.262-0.062 217.173 55.893c14.396 3.421 24.939 16.17 24.939 31.381 0 1.8-0.148 3.566-0.432 5.286l0.025-0.187c-1.551 17.441-15.854 31.079-33.445 31.572l-0.048 0.001zM571.093-37.76c-6.914-0.143-13.264-2.442-18.436-6.249l0.089 0.063c-11.444-8.685-25.499-14.514-40.804-16.181l-0.369-0.033h-1.707c-9.242 0.492-17.772 3.122-25.237 7.4l0.277-0.146-5.547 3.413c-5.333 3.413-6.827 4.48-8.533 4.693-4.698 2.532-10.278 4.030-16.206 4.053h-0.007c-16.335-0.221-30.216-10.495-35.75-24.908l-0.090-0.266c-1.006-2.811-1.588-6.053-1.588-9.431 0-9.617 4.714-18.133 11.957-23.364l0.085-0.058c22.434-18.173 51.314-29.188 82.765-29.227h0.008c28.885 0.215 55.571 9.452 77.427 25.027l-0.414-0.28c8.965 6.375 14.742 16.725 14.742 28.424 0 3.872-0.633 7.596-1.801 11.074l0.071-0.245c-3.752 14.074-16.037 24.404-30.851 25.17l-0.082 0.003zM756.907 573.867c-23.955 44.426-59.105 80.125-101.741 104.076l-1.299 0.671c-39.199 21.757-85.962 34.564-135.717 34.564-0.512 0-1.024-0.001-1.535-0.004h0.079c-43.695-0.010-85.205-9.355-122.647-26.149l1.9 0.762c-40.212-18.002-74.016-43.809-100.768-75.728l-0.352-0.432c-39.29-49.706-63.025-113.283-63.025-182.404 0-19.54 1.897-38.638 5.516-57.118l-0.305 1.869c12.17-81.871 58.872-150.894 124.544-192.831l1.109-0.662c4.987-3.068 11.026-4.891 17.489-4.907h0.004c16.021 0.536 29.291 11.698 33.016 26.638l0.051 0.242c0.86 2.777 1.355 5.969 1.355 9.277 0 12.228-6.768 22.874-16.762 28.399l-0.167 0.085c-87.893 52.053-112.853 177.493-85.333 263.893 28.685 82.265 105.594 140.235 196.042 140.235 1.954 0 3.902-0.027 5.844-0.081l-0.286 0.006c0.272 0.001 0.594 0.002 0.916 0.002 40.815 0 79.058-11.010 111.922-30.223l-1.051 0.568c45.409-27.093 78.495-70.837 91.033-122.607l0.274-1.34c4.426-16.507 6.968-35.459 6.968-55.005 0-41.666-11.552-80.635-31.629-113.877l0.554 0.989c-13.612-20.635-27.65-38.604-42.973-55.38l0.307 0.34c-9.6-11.093-19.627-22.827-28.587-34.773-12.054-17.692-20.623-38.73-24.207-61.425l-0.113-0.868-2.56-11.307-198.187-52.693c-14.428-3.491-24.977-16.293-24.977-31.559 0-1.889 0.161-3.74 0.471-5.54l-0.027 0.193c1.127-17.689 15.487-31.678 33.229-32.212l0.051-0.001c3.417 0.006 6.722 0.473 9.861 1.342l-0.261-0.062 171.307 45.44c42.667 10.453 75.733 18.773 79.573 79.787 5.744 23.968 18.572 44.353 36.116 59.394l0.151 0.126c4.267 4.693 8.107 8.96 11.733 13.227 23.57 26.124 43.503 56.163 58.608 88.889l0.912 2.204c13.128 31.437 20.754 67.964 20.754 106.271 0 51.38-13.719 99.556-37.694 141.065l0.726-1.363zM171.733 426.667c0 19.087-15.473 34.56-34.56 34.56v0h-66.987c-19.087 0-34.56-15.473-34.56-34.56s15.473-34.56 34.56-34.56v0h66.987c18.622 0.593 33.493 15.832 33.493 34.544 0 0.006 0 0.012 0 0.017v-0.001zM953.813 460.8h-66.987c-19.087 0-34.56-15.473-34.56-34.56s15.473-34.56 34.56-34.56v0h66.987c19.087 0 34.56 15.473 34.56 34.56s-15.473 34.56-34.56 34.56v0zM223.787 667.093c6.172-5.823 14.516-9.402 23.695-9.402 19.087 0 34.56 15.473 34.56 34.56 0 9.18-3.579 17.524-9.418 23.712l0.016-0.017-47.36 47.573c-6.172 5.823-14.516 9.402-23.695 9.402-19.087 0-34.56-15.473-34.56-34.56 0-9.18 3.579-17.524 9.418-23.712l-0.016 0.017zM802.773 185.173c-6.172 5.823-14.516 9.402-23.695 9.402-19.087 0-34.56-15.473-34.56-34.56 0-9.18 3.579-17.524 9.418-23.712l-0.016 0.017 47.36-47.36c6.172-5.823 14.516-9.402 23.695-9.402 19.087 0 34.56 15.473 34.56 34.56 0 9.18-3.579 17.524-9.418 23.712l0.016-0.017zM513.28 761.173c19.087 0 34.56 15.473 34.56 34.56v0 67.413c-1.451 17.883-16.321 31.847-34.453 31.847s-33.003-13.964-34.445-31.724l-0.008-0.123v-67.2c0-19.087 15.473-34.56 34.56-34.56v0zM272.64 185.173c-6.242 6.184-14.835 10.005-24.32 10.005s-18.078-3.821-24.323-10.008l-47.357-47.357c-5.823-6.172-9.402-14.516-9.402-23.695 0-19.087 15.473-34.56 34.56-34.56 9.18 0 17.524 3.579 23.712 9.418l-0.017-0.016 47.36 47.36c6.184 6.242 10.005 14.835 10.005 24.32 0 9.591-3.907 18.27-10.216 24.531l-0.002 0.002zM753.92 667.093c6.242-6.184 14.835-10.005 24.32-10.005s18.078 3.821 24.323 10.008l47.357 47.357c6.696 6.317 10.865 15.251 10.865 25.158 0 19.087-15.473 34.56-34.56 34.56-9.907 0-18.841-4.169-25.142-10.848l-0.016-0.017-47.36-47.36c-6.184-6.242-10.005-14.835-10.005-24.32 0-9.591 3.907-18.27 10.216-24.531l0.002-0.002z" />
<glyph unicode="&#xe6b9;" glyph-name="outline" horiz-adv-x="1577" d="M71.926-128c-39.724 0-71.926 32.202-71.926 71.926s32.202 71.926 71.926 71.926v0h802.543c39.724 0 71.926-32.202 71.926-71.926s-32.202-71.926-71.926-71.926v0zM71.926 751.832c-39.724 0-71.926 32.202-71.926 71.926s32.202 71.926 71.926 71.926v0h1433.474c39.724 0 71.926-32.202 71.926-71.926s-32.202-71.926-71.926-71.926v0zM71.926 312.074c-39.724 0-71.926 32.202-71.926 71.926s32.202 71.926 71.926 71.926v0h1086.462c39.724 0 71.926-32.202 71.926-71.926s-32.202-71.926-71.926-71.926v0z" />
<glyph unicode="&#xe6ba;" glyph-name="start" d="M870.957 384l-718.136-512v1024l718.136-512z" />
<glyph unicode="&#xe6bb;" glyph-name="share" horiz-adv-x="1071" d="M774.486 245.604c-68.86 0-128.835-37.975-160.164-94.112l-226.395 121.147c15.974 27.195 25.143 58.869 25.143 92.692 0 24.483-4.811 47.838-13.52 69.187l249.822 158.863c33.534-43.18 85.943-70.974 144.855-70.974 101.216 0 183.303 82.063 183.303 183.291 0 101.242-82.089 183.316-183.303 183.316-101.241 0-183.302-82.075-183.302-183.316 0-23.547 4.445-46.053 12.534-66.735l-250.454-159.252c-33.588 42.007-85.263 68.923-143.234 68.923-101.242 0-183.303-82.062-183.303-183.302s82.062-183.291 183.303-183.291c48.214 0 92.070 18.619 124.794 49.047l240.975-128.949c-2.767-11.951-4.353-25.674-4.353-39.768 0-0.021 0-0.042 0-0.063v0.003c0-101.267 82.062-183.328 183.302-183.328 101.243 0 183.303 82.061 183.303 183.328-0.002 101.218-82.064 183.293-183.307 183.293zM794.381 831.568c69.507 0 125.869-56.349 125.869-125.868 0-69.505-56.361-125.854-125.869-125.854-69.53 0-125.865 56.349-125.865 125.854 0 69.519 56.336 125.868 125.865 125.868zM229.922 239.466c-69.505 0-125.867 56.348-125.867 125.867s56.361 125.867 125.867 125.867 125.868-56.348 125.868-125.867-56.359-125.867-125.868-125.867zM774.639-63.555c-69.503 0-125.865 56.337-125.865 125.867 0 69.506 56.361 125.843 125.865 125.843 69.507 0 125.869-56.337 125.869-125.843 0-69.53-56.361-125.867-125.869-125.867z" />
<glyph unicode="&#xe6bc;" glyph-name="setting" horiz-adv-x="1083" d="M1072.303 489.74c-6.233 33.391-26.713 55.207-52.090 55.207h-5.565c-73.766 0-133.565 59.799-133.565 133.565v0c0.998 18.456 5.159 35.683 11.95 51.515l-0.375-0.983c3.586 8.119 5.674 17.586 5.674 27.541 0 23.23-11.368 43.805-28.845 56.465l-0.203 0.14h-1.558l-133.565 74.574h-1.781c-8.335 3.659-18.051 5.788-28.264 5.788-0.081 0-0.161 0-0.242 0h0.013c-0.177 0.001-0.387 0.002-0.596 0.002-21.121 0-40.257-8.502-54.172-22.27l0.007 0.007c-14.692-15.137-65.669-58.546-104.848-58.546s-90.602 44.522-105.516 59.882c-13.908 13.764-33.046 22.268-54.17 22.268-0.365 0-0.729-0.003-1.092-0.008l0.055 0.001c-0.172 0.002-0.376 0.002-0.579 0.002-9.844 0-19.21-2.048-27.695-5.741l0.448 0.174h-1.781l-139.13-76.577h-1.781c-17.805-12.743-29.271-33.357-29.271-56.65 0-9.94 2.088-19.392 5.849-27.942l-0.175 0.445c6.452-14.849 10.617-32.081 11.56-50.166l0.015-0.366c0-73.766-59.799-133.565-133.565-133.565h-5.565c-25.155 0-45.635-22.261-51.868-55.207-5.727-31.257-9.343-67.602-10.009-104.669l-0.009-0.625c1.104-38.304 5.187-74.875 12.038-110.461l-0.685 4.277c6.233-33.391 26.713-55.207 52.090-55.207h5.565c73.766 0 133.565-59.799 133.565-133.565v0c-0.979-18.454-5.142-35.683-11.949-51.507l0.373 0.975c-3.554-8.1-5.622-17.541-5.622-27.465 0-23.242 11.343-43.834 28.795-56.542l0.2-0.139h1.558l131.784-73.683h1.781c8.206-3.66 17.783-5.791 27.857-5.791 0.224 0 0.448 0.001 0.671 0.003h-0.034c0.497-0.012 1.083-0.018 1.67-0.018 20.926 0 39.863 8.518 53.533 22.275l0.004 0.004c18.699 20.257 69.676 62.33 107.075 62.33s90.602-47.416 106.629-63.889c13.785-14.547 33.244-23.599 54.816-23.599 0.216 0 0.431 0.001 0.646 0.003h-0.033c0.053 0 0.116 0 0.178 0 9.981 0 19.485 2.046 28.113 5.743l-0.466-0.177h1.781l136.681 75.464h1.558c17.763 12.747 29.198 33.337 29.198 56.598 0 9.875-2.061 19.268-5.775 27.773l0.174-0.447c-6.399 14.849-10.558 32.073-11.558 50.14l-0.017 0.392c0 73.766 59.799 133.565 133.565 133.565h5.343c25.377 0 45.857 22.261 52.090 55.207 6 32.003 9.778 69.185 10.454 107.124l0.009 0.619c-1.088 38.131-5.171 74.547-12.036 109.971l0.683-4.232zM377.543-49.639l-115.311 64.556c9.028 22.159 14.6 47.833 15.353 74.712l0.007 0.307c-0.019 109.587-84.455 199.446-191.818 208.091l-0.738 0.048c-4.781 25.213-7.982 54.74-8.884 84.844l-0.020 0.86c0.993 31.033 4.191 60.556 9.459 89.356l-0.554-3.652c108.092 8.581 192.556 98.41 192.556 207.967 0 0.060 0 0.121 0 0.181v-0.009c-0.77 27.188-6.341 52.86-15.888 76.5l0.528-1.481 122.657 66.782c13.837-13.964 28.738-26.817 44.592-38.449l1.043-0.73c30.839-24.737 69.799-40.534 112.34-42.94l0.522-0.024c42.407 2.525 80.78 17.962 111.724 42.393l-0.42-0.32c17.229 12.137 32.354 24.86 46.318 38.749l-0.016-0.015 118.205-66.782c-9.028-22.159-14.6-47.833-15.353-74.712l-0.007-0.307c0.019-109.587 84.455-199.446 191.818-208.091l0.738-0.048c4.772-25.205 7.973-54.732 8.883-84.834l0.021-0.87c-0.993-31.033-4.191-60.556-9.459-89.356l0.554 3.652c-108.092-8.581-192.556-98.41-192.556-207.967 0-0.060 0-0.121 0-0.181v0.009c0.77-27.188 6.341-52.86 15.888-76.5l-0.528 1.481-119.541-66.782c-14.233 14.828-29.501 28.402-45.783 40.706l-0.965 0.699c-31.501 25.875-71.629 42.311-115.51 44.503l-0.469 0.019c-43.952-2.445-83.658-18.844-115.209-44.796l0.343 0.274c-16.484-12.030-31.017-24.444-44.546-37.867l0.024 0.024zM731.49 384.001c0 105.977-85.911 191.888-191.888 191.888s-191.888-85.911-191.888-191.888c0-105.977 85.911-191.888 191.888-191.888v0c105.926 0.127 191.762 85.962 191.888 191.876v0.012zM539.602 499.758c63.93 0 115.756-51.826 115.756-115.756s-51.826-115.756-115.756-115.756c-63.93 0-115.756 51.826-115.756 115.756v0c0 0 0 0 0 0 0 63.975 51.799 115.852 115.744 115.979h0.012z" />
<glyph unicode="&#xe6bd;" glyph-name="question-mark" d="M512 817.562c239.45 0 433.562-194.112 433.562-433.562s-194.112-433.562-433.562-433.562c-239.45 0-433.562 194.112-433.562 433.562v0c-0.009 1.039-0.014 2.267-0.014 3.496 0 237.527 192.553 430.080 430.080 430.080 1.229 0 2.457-0.005 3.684-0.015l-0.187 0.001M512 896c-282.77 0-512-229.23-512-512s229.23-512 512-512c282.77 0 512 229.23 512 512v0c-0.813 282.442-229.558 511.187-511.922 512h-0.078zM556.851 256v-19.251h-89.701v25.6c0 57.549 25.6 108.749 83.149 153.6 57.548 38.297 83.148 76.8 76.8 121.651-12.698 44.851-38.298 70.451-96.052 76.8-70.45 0-115.302-31.949-128-108.749l-89.702 25.6c25.6 115.098 102.4 172.851 230.4 166.298 115.302-6.349 172.851-64.103 185.549-166.298 0-64.102-38.503-128-115.303-185.549-44.441-25.804-63.488-51.2-57.139-89.702zM448.102 96.051c0-0.060 0-0.131 0-0.203 0-35.403 28.699-64.102 64.102-64.102s64.102 28.699 64.102 64.102c0 35.403-28.699 64.102-64.102 64.102-0.072 0-0.143 0-0.215 0h0.011c-35.243-0.116-63.782-28.655-63.898-63.887v-0.011z" />
<glyph unicode="&#xe6be;" glyph-name="true" d="M512 896c-282.77 0-512-229.23-512-512s229.23-512 512-512c282.77 0 512 229.23 512 512v0c0 282.77-229.23 512-512 512v0zM830.054 527.36l-382.157-382.976c-4.255-4.223-10.117-6.833-16.589-6.833s-12.333 2.61-16.59 6.835l-216.063 216.063c-4.223 4.255-6.833 10.117-6.833 16.589s2.61 12.333 6.835 16.59l50.175 50.175c4.255 4.223 10.117 6.833 16.589 6.833s12.333-2.61 16.59-6.835l149.298-149.298 315.392 314.778c4.255 4.223 10.117 6.833 16.589 6.833s12.333-2.61 16.59-6.835l50.175-50.175c3.815-4.171 6.152-9.748 6.152-15.872s-2.337-11.701-6.168-15.89l0.016 0.018z" />
<glyph unicode="&#xe6bf;" glyph-name="stop" d="M102.4 896h307.2v-1024h-307.2zM614.4 896h307.2v-1024h-307.2z" />
<glyph unicode="&#xe6c0;" glyph-name="open" d="M1011.010 386.521c0 165.726-134.347 300.095-300.074 300.095h-394.194c-165.726 0-300.074-134.348-300.074-300.095s134.348-300.074 300.074-300.074h394.194c165.726 0 300.074 134.348 300.074 300.074zM983.595 385.902c0-150.399-121.92-272.339-272.339-272.339-150.399 0-272.339 121.92-272.339 272.339 0 150.399 121.94 272.339 272.318 272.339 150.442-0.022 272.361-121.94 272.361-272.339z" />
<glyph unicode="&#xe6c1;" glyph-name="left-close" d="M966.201 203.569h-580.722c-28.217 0-50.972 24.576-50.972 54.614s22.756 54.613 50.972 54.614h580.722c28.217 0 50.972-24.576 50.972-54.614s-22.756-54.613-50.972-54.614zM966.201 458.431h-580.722c-28.217 0-50.972 24.576-50.972 54.614s22.756 54.613 50.972 54.614h580.722c28.217 0 50.972-24.576 50.972-54.614s-22.756-54.613-50.972-54.614zM962.56 704.191h-892.018c-30.038 0-54.614 24.576-54.613 54.613s24.576 54.614 54.613 54.613h892.018c30.038 0 54.614-24.576 54.613-54.613s-24.576-54.614-54.613-54.613zM270.791 203.569l-254.862 182.044 254.862 182.044v-364.089zM70.542 67.036h892.018c30.038 0 54.614-24.576 54.613-54.613s-24.576-54.614-54.613-54.613h-892.018c-30.038 0-54.614 24.576-54.613 54.613s24.576 54.614 54.613 54.613z" />
<glyph unicode="&#xe6c2;" glyph-name="right-open" d="M57.799 561.493h580.722c28.217 0 50.972-24.576 50.972-54.614s-22.756-54.613-50.972-54.614h-580.722c-28.217 0-50.972 24.576-50.972 54.614s22.756 54.613 50.972 54.614zM57.799 306.631h580.722c28.217 0 50.972-24.576 50.972-54.614s-22.756-54.613-50.972-54.614h-580.722c-28.217 0-50.972 24.576-50.972 54.614s22.756 54.613 50.972 54.614zM61.44 60.871h892.018c30.038 0 54.614-24.576 54.613-54.613s-24.576-54.614-54.613-54.613h-892.018c-30.038 0-54.614 24.576-54.613 54.613s24.576 54.614 54.613 54.613zM753.209 561.493l254.862-182.044-254.862-182.044v364.089zM953.458 698.027h-892.018c-30.038 0-54.614 24.576-54.613 54.613s24.576 54.614 54.613 54.613h892.018c30.038 0 54.614-24.576 54.613-54.613s-24.576-54.614-54.613-54.613z" />
<glyph unicode="&#xe6c3;" glyph-name="add-border" d="M510-101.957c-267.665 0-484.65 217.029-484.65 484.727s216.985 484.712 484.651 484.712c267.666 0 484.651-217.012 484.651-484.712s-216.985-484.727-484.651-484.727zM510 806.897c-234.209 0-424.066-189.887-424.066-424.126s189.858-424.127 424.066-424.127 424.068 189.888 424.068 424.127-189.859 424.126-424.066 424.126zM691.745 352.47h-151.451v-151.473c0-16.724-13.562-30.29-30.291-30.29s-30.289 13.567-30.289 30.289v151.474h-151.455c-16.73 0-30.292 13.566-30.292 30.301 0 16.724 13.565 30.29 30.292 30.29h151.455v151.479c0 16.721 13.562 30.281 30.289 30.281 16.731 0 30.292-13.557 30.292-30.281v-151.48h151.449c16.732 0 30.292-13.565 30.292-30.29 0-16.736-13.56-30.299-30.292-30.299z" />
<glyph unicode="&#xe6c4;" glyph-name="delect" d="M905.225-86.617l-863.845 863.844c-21.372 21.372-21.372 56.020 0 77.389s56.020 21.372 77.389 0l863.847-863.847c21.372-21.37 21.372-56.017 0-77.387s-56.020-21.37-77.39 0zM41.386-86.619c-21.372 21.372-21.372 56.019 0 77.39l863.844 863.845c21.369 21.372 56.017 21.372 77.389 0s21.372-56.019 0-77.389l-863.847-863.845c-21.372-21.372-56.019-21.372-77.386-0.001z" />
<glyph unicode="&#xe6c5;" glyph-name="add-pic" d="M0 789.239v-832h1024v832h-1024zM960 21.239h-896v704h896v-704zM704 565.239c0 53.024 42.976 96 96 96s96-42.976 96-96-42.976-96-96-96-96 42.976-96 96zM896 85.239h-768l192 512 256-320 128 96z" />
<glyph unicode="&#xe6c6;" glyph-name="remember" d="M512.033 864c-265.079 0-479.967-214.889-479.967-479.967s214.889-479.967 479.967-479.967c265.056 0 479.93 214.851 479.967 479.898v0.003c0 0.020 0 0.043 0 0.066 0 265.079-214.889 479.967-479.967 479.967v0zM803.216 92.784c-74.173-73.954-176.524-119.681-289.556-119.681-226.501 0-410.117 183.616-410.117 410.117s183.616 410.117 410.117 410.117c226.501 0 410.117-183.616 410.117-410.117 0-57.658-11.898-112.537-33.374-162.316l1.022 2.661c-21.809-50.845-51.57-94.25-88.198-130.771l-0.010-0.010zM702.054 544.108l-277.644-277.577-141.457 141.458c-6.325 7.271-15.593 11.841-25.928 11.841-18.947 0-34.307-15.36-34.307-34.307 0-10.287 4.527-19.516 11.698-25.804l0.039-0.034 165.739-165.74c6.207-6.203 14.78-10.039 24.249-10.039s18.042 3.836 24.25 10.039l301.794 301.73c6.623 6.268 10.744 15.12 10.744 24.935 0 18.947-15.36 34.307-34.307 34.307-9.815 0-18.668-4.122-24.921-10.729l-0.015-0.016z" />
<glyph unicode="&#xe6c7;" glyph-name="ming-close" d="M512 25.6c-276.945 0-493.382 309.527-502.69 321.164-9.31 13.963-9.31 32.581 0 46.545 9.307 16.291 225.744 325.818 502.69 325.818s493.382-309.527 502.69-321.163c9.31-13.964 9.31-32.582 0-46.546-9.307-16.29-225.744-325.818-502.69-325.818zM95.418 372.364c53.527-67.491 223.418-262.982 416.582-262.982s360.727 193.163 416.582 262.982c-53.527 67.49-223.418 262.981-416.582 262.981s-360.727-193.163-416.582-262.981zM584.145 335.127c-46.545 0-81.454 37.237-81.454 81.455s37.236 81.454 81.454 81.454c-20.945 11.637-46.545 18.619-72.145 18.619-81.455 0-146.618-65.164-146.618-146.619s65.163-146.618 146.618-146.618 146.618 65.164 146.618 146.618v9.31c-13.963-25.6-41.89-44.219-74.473-44.219z" />
<glyph unicode="&#xe6c8;" glyph-name="anmi" d="M1000.877 520.863c10.625 15.936 7.083 37.184-7.083 49.579-15.936 12.395-37.184 8.853-49.579-7.083-1.772-1.77-198.315-233.729-432.046-233.729-226.645 0-432.045 233.729-433.815 235.5-12.396 14.165-35.413 15.936-49.58 3.542-14.165-12.395-15.936-35.413-3.542-49.58 3.542-5.311 46.038-53.119 113.323-106.24l-90.305-93.846c-14.165-14.165-12.394-37.184 1.772-49.579 3.542-7.083 12.395-10.625 21.249-10.625 8.852 0 17.706 3.542 24.789 10.625l97.387 100.928c46.038-31.873 100.929-61.975 161.132-83.222l-37.185-125.719c-5.311-19.476 5.313-38.954 24.79-44.266h10.623c15.936 0 30.102 10.625 33.643 26.56l37.184 125.719c28.331-5.312 58.433-8.854 88.534-8.854s60.203 3.542 88.535 8.854l37.183-123.948c3.543-15.936 19.479-26.559 33.644-26.559 3.542 0 7.083 0 8.854 1.77 19.476 5.313 30.101 24.789 24.79 44.266l-37.185 123.948c60.204 21.249 115.094 51.35 161.132 83.222l95.617-99.157c7.083-7.083 15.936-10.625 24.789-10.625s17.707 3.542 24.789 10.623c14.165 14.166 14.165 35.413 1.772 49.58l-90.305 93.845c72.599 53.122 115.098 104.471 115.098 104.471z" />
<glyph unicode="&#xe6c9;" glyph-name="move-up" d="M570.55 564.736l148.867 148.867v-604.797c0-22.622 18.338-40.96 40.96-40.96s40.96 18.338 40.96 40.96v0 605.707l150.187-150.187c7.362-7.132 17.411-11.528 28.487-11.528 22.622 0 40.96 18.338 40.96 40.96 0 11.079-4.398 21.13-11.544 28.503l0.010-0.011-219.648 219.659c-7.412 7.412-17.652 11.996-28.962 11.996s-21.55-4.584-28.962-11.996l-219.25-219.25c-7.554-7.435-12.234-17.77-12.234-29.198 0-22.622 18.338-40.96 40.96-40.96 11.428 0 21.763 4.68 29.193 12.228l0.005 0.005zM44.373 773.12h375.467c22.622 0 40.96 18.338 40.96 40.96s-18.338 40.96-40.96 40.96h-375.467c-22.622 0-40.96-18.338-40.96-40.96s18.338-40.96 40.96-40.96v0zM44.373 485.638h375.467c22.622 0 40.96 18.338 40.96 40.96s-18.338 40.96-40.96 40.96v0h-375.467c-22.622 0-40.96-18.338-40.96-40.96s18.338-40.96 40.96-40.96v0zM44.373 198.167h375.467c22.622 0 40.96 18.338 40.96 40.96s-18.338 40.96-40.96 40.96v0h-375.467c-22.622 0-40.96-18.338-40.96-40.96s18.338-40.96 40.96-40.96v0zM980.764-7.396h-936.391c-22.622 0-40.96-18.338-40.96-40.96s18.338-40.96 40.96-40.96v0h936.391c22.622 0 40.96 18.338 40.96 40.96s-18.338 40.96-40.96 40.96v0z" />
<glyph unicode="&#xe6ca;" glyph-name="move-delete" d="M842.827 569.3c-20.159 0-37.95-16.383-37.95-36.606v-547.486c-0.215-19.981-16.464-36.097-36.476-36.097-0.158 0-0.316 0.001-0.474 0.003h-511.88c-0.135-0.002-0.293-0.003-0.452-0.003-20.051 0-36.343 16.092-36.665 36.066v549.116c0 20.223-14.719 36.606-34.942 36.606s-35.006-16.383-35.006-36.606v-549.022c0-60.476 46.589-113.081 107.065-113.081h512.032c60.476 0 112.889 52.669 112.889 113.081v547.55c-0.128 20.095-17.919 36.478-38.078 36.478zM435.941 131.44v402.279c0 20.159-14.783 36.542-35.006 36.542s-35.006-16.255-35.006-36.542v-402.279c0-20.159 14.783-36.606 35.006-36.606s35.006 16.447 35.006 36.606zM657.879 131.44v402.279c0 20.159-17.791 36.542-37.95 36.542-20.223 0-38.014-16.255-38.014-36.542v-402.279c0-20.159 17.791-36.606 38.014-36.606 20.159 0 37.95 16.447 37.95 36.606zM987.266 714.955h-182.389v74.747c0 60.476-49.277 106.297-109.305 106.297h-366.505c-60.412 0-110.073-45.821-110.073-106.233v-74.747h-182.389c-20.287 0-36.606-14.783-36.606-35.006 0-20.159 16.319-34.942 36.606-34.942h950.725c20.223 0 36.606 14.719 36.606 34.942s-16.383 35.006-36.67 35.006zM728.914 714.955h-439.013v74.747c0 20.223 19.071 36.286 39.166 36.286h366.505c20.031 0 33.278-15.743 33.278-36.286v-74.683z" />
<glyph unicode="&#xe6cb;" glyph-name="copy" d="M832-128h-768v896h768v-896zM768 704h-640v-768h640v768zM320 896h-64v-128h64v128zM640 512h-384v-64h384v64zM640 320h-384v-64h384v64zM640 128h-384v-64h384v64zM960 896h-640v-64h640v64zM960 832h-64v-768h64v768zM896 128h-64v-64h64v64z" />
<glyph unicode="&#xe6cc;" glyph-name="move-down" d="M570.254 201.082c-16.311 16.311-42.526 16.311-58.254 0s-15.729-41.943 0.583-57.672l219.036-219.036c15.729-15.729 41.943-15.729 57.672 0l219.618 219.618c15.146 15.729 15.146 41.36 0 57.089-15.729 16.311-41.943 16.894-57.672 1.165l-150.296-150.296v605.844c0 22.719-18.059 40.778-40.778 40.778s-40.778-18.059-40.778-40.778v-605.844l-149.131 149.131zM3.441-48.246c0-22.719 18.059-40.778 40.778-40.778h375.74c22.719 0 40.778 18.059 40.778 40.778s-18.059 40.778-40.778 40.778h-375.74c-22.719 0-40.778-18.059-40.778-40.778zM3.441 238.947c0-22.719 18.059-40.778 40.778-40.778h375.74c22.719 0 40.778 18.059 40.778 40.778s-18.059 40.778-40.778 40.778h-375.74c-22.719 0.583-40.778-18.059-40.778-40.778zM3.441 526.723c0-22.719 18.059-40.778 40.778-40.778h375.74c22.719 0 40.778 18.059 40.778 40.778s-18.059 40.778-40.778 40.778h-375.74c-22.719 0-40.778-18.059-40.778-40.778zM1021.724 813.916c0 22.719-18.059 40.778-40.778 40.778h-936.728c-22.719 0-40.778-18.059-40.778-40.778s18.059-40.778 40.778-40.778h936.145c23.302 0 41.36 18.059 41.36 40.778z" />
<glyph unicode="&#xe6cd;" glyph-name="jump" d="M767.558 568.996h-487.451v127.822l-190.060-190.785 190.060-190.432v126.239h487.451c69.993 0 126.949-56.956 126.949-126.971 0-8.409-0.87-16.62-2.429-24.567 25.856-25.925 78.44-78.604 97.949-98.154 20.116 36.382 31.638 78.19 31.638 122.721 0 140.362-113.773 254.127-254.106 254.127zM747.635 187.912h-488.376c-69.993 0-126.95 56.956-126.95 126.957 0 8.941 0.953 17.654 2.719 26.077l-97.562 97.762c-20.518-36.653-32.314-78.846-32.314-123.839 0-140.354 113.773-254.116 254.106-254.116h488.376v-126.949l190.059 190.777-190.059 190.433v-127.102z" />
<glyph unicode="&#xe6ce;" glyph-name="cite" d="M353.39 470.788c-25.65 23.964-52.154 46.289-80.51 65.040-42.069 27.624-89.934 48.983-144.585 49.217h-122.922v-136.473h122.922c22.008 0.732 57.563-14.404 99.716-49.009 10.526-8.458 21.302-18.006 32.244-28.202 13.673 14.391 27.595 29.402 42.055 45.029 19.316 20.889 35.978 38.601 52.774 56.181l-1.694-1.786zM475.236 150.778c25.72-23.744 52.348-45.863 80.812-64.447 42.621-27.65 91.105-48.804 146.184-48.954h105.91v-108.103l213.007 179.409-213.009 179.907v-114.769h-105.91c-23.648-0.663-59.81 14.653-102.389 49.271-10.251 8.157-20.724 17.302-31.348 27.073-12.653-13.357-25.499-27.128-38.843-41.561-17.781-19.206-35.954-38.578-54.415-57.825zM699.515 448.573h108.629v-109.925l213.007 179.41-213.009 179.919v-112.933h-108.022c-73.309-0.801-132.787-37.048-185.646-79.53-79.295-64.738-150.822-152.684-219.712-221.782-34.148-34.466-67.306-63.98-96.776-83.005-29.375-19.152-53.328-26.906-71.265-26.906h-121.348v-136.444h120.865c73.751 0.663 134.182 36.717 187.717 79.246 80.286 64.826 152.076 152.925 220.801 222.107 33.982 34.562 66.877 64.117 95.866 83.143 28.865 19.108 52.142 26.699 68.89 26.699z" />
<glyph unicode="&#xe6cf;" glyph-name="show-logic" d="M130.483 595.727h678.285v-267.558c29.706-8.446 59.313-20.169 84.748-37.059v389.365c0 46.597-38.152 84.748-84.748 84.748h-678.285c-46.596 0-84.748-38.15-84.748-84.748v-508.688c0-46.596 38.152-84.748 84.748-84.748h254.344c0 29.706 17.487 59.314 34.476 84.748h-288.82v423.94zM423.873 510.88h-208.641v-84.748h508.688v84.748h-300.046zM215.231 341.382v-84.748h288.821c50.868 42.425 126.675 84.748 219.868 84.748h-508.688zM723.92 262.519c-139.889 0-254.344-139.889-254.344-169.596 0-29.606 114.455-169.496 254.344-169.496s254.344 148.332 254.344 169.594c0 21.162-114.455 169.496-254.344 169.496zM723.92-21.694c-63.328 0-114.666 51.339-114.666 114.666s51.339 114.666 114.666 114.666c63.328 0 114.666-51.338 114.666-114.666s-51.339-114.666-114.666-114.666zM658.48 92.973c0-36.142 29.299-65.44 65.44-65.44s65.44 29.299 65.44 65.44v0c0 36.142-29.299 65.44-65.44 65.44s-65.44-29.299-65.44-65.44v0z" />
<glyph unicode="&#xe6d0;" glyph-name="preview1" d="M512 864c-265.097 0-480-214.903-480-480s214.903-480 480-480 480 214.903 480 480-214.903 480-480 480zM552 624.001c0-22.091-17.754-40-40-40-22.091 0-40 17.754-40 40 0 22.091 17.754 40 40 40 22.091 0 40-17.754 40-40zM552.001 143.816c0-21.991-17.754-39.817-40-39.817-22.091 0-40 18.227-40 39.817v320.368c0 21.991 17.754 39.817 40 39.817 22.091 0 40-18.227 40-39.817v-320.368z" />
<glyph unicode="&#xe6d1;" glyph-name="duo-type" d="M1024-128h-1024v1024h1024v-1024zM94.72-33.28h834.048v834.56h-834.048v-834.56zM422.4 89.6l-307.2 281.6 72.704 83.456 228.864-224.768 388.096 454.144 65.536-56.832-448-537.6z" />
<glyph unicode="&#xe6d2;" glyph-name="right-phone" d="M495.278-4.362c-0.054 0-0.119 0-0.183 0-21.497 0-38.941 17.358-39.078 38.824v0.013c0 21.421 17.598 38.836 39.261 38.836 21.664 0 39.322-17.415 39.322-38.836s-17.659-38.836-39.322-38.836zM752.69-64.861c0.183-0.003 0.398-0.004 0.614-0.004 24.39 0 44.213 19.55 44.654 43.835l0.001 0.041v816.288c-0.474 24.3-20.285 43.817-44.653 43.817-0.217 0-0.433-0.002-0.649-0.005h-495.793c-0.201 0.003-0.438 0.005-0.676 0.005-24.369 0-44.18-19.517-44.653-43.773l-0.001-0.044v-816.288c0-23.968 20.267-43.872 45.329-43.872h495.826zM752.69-125.542h-495.83c-58.315 0-106.010 46.724-106.010 104.555v816.287c0 57.769 47.695 104.494 106.011 104.494h495.828c58.375 0 105.95-46.725 105.95-104.494v-816.288c0-57.769-47.574-104.554-105.95-104.554zM211.532 122.645h586.426v60.681h-586.426v-60.681z" />
<glyph unicode="&#xe6d3;" glyph-name="right-industry" d="M942.488 680.992h-145.385v113.615c0 34.849-28.426 63.198-63.37 63.198h-443.754c-34.931 0-63.354-28.35-63.354-63.198v-113.615h-145.383c-44.517 0-80.738-36.097-80.738-80.469v-598.858c0-44.367 36.22-80.47 80.737-80.47h861.248c44.521 0 80.742 36.104 80.742 80.47v598.858c0 44.373-36.221 80.469-80.742 80.469zM301.991 782.446h419.752v-101.455h-419.752v101.455zM81.243 605.633h861.245c2.964 0 5.378-2.291 5.378-5.112v-240.352h-150.762v20.99c0 20.81-16.87 37.679-37.679 37.679s-37.68-16.869-37.68-37.679v-20.99h-419.755v19.325c0 20.81-16.87 37.68-37.681 37.68-20.815 0-37.684-16.87-37.684-37.68v-19.325h-150.756v240.353c0 2.821 2.409 5.111 5.373 5.111zM942.488-3.442h-861.245c-2.964 0-5.374 2.29-5.374 5.106v283.147h150.758v-22.608c0-20.816 16.87-37.684 37.684-37.684 20.811 0 37.681 16.869 37.681 37.684v22.608h419.752v-20.991c0-20.81 16.87-37.679 37.68-37.679s37.679 16.87 37.679 37.679v20.99h150.764v-283.147c0-2.815-2.414-5.106-5.378-5.106zM942.488-3.442" />
<glyph unicode="&#xe6d4;" glyph-name="right-name" d="M831.645 249.986c27.97 0 35.038 7.12 35.038 35.013 0 16.141-11.478 29.351-23.207 38.623l-2.207 2.231c-38.997 30.126-79.7 58.847-126.417 76.693 59.45 51.054 97.345 126.669 97.345 211.182 0 153.66-124.664 278.248-278.401 278.248-153.688 0-278.302-124.587-278.302-278.248 0-84.512 37.845-160.129 97.346-211.182-189.877-72.806-325.018-256.345-325.117-471.937v-0.102c0.098-27.844 12.329-48.597 40.1-48.597 28.070 0 30.076 20.127 30.126 47.948 0 223.212 134.187 434.039 435.897 429.055 91.58-1.503 198.849-36.718 264.266-91.207 17.745-14.787 21.654-14.985 29.624-17.242l3.908-0.478zM533.846 412.996c-143.762 0.276-212.887 103.086-212.887 200.732 0 97.619 79 211.883 213.138 211.883 155.993 0 213.187-115.441 213.187-213.060 0-97.699-90.78-203.263-213.437-199.555zM626.63 116.176c0-27.947 22.658-41.279 50.625-41.279h269.981c27.97 0 50.627 13.331 50.627 41.279 0 27.996-22.657 38.623-50.627 38.623h-269.981c-27.968-0.001-50.625-10.627-50.625-38.623zM947.236-48.387h-269.981c-27.968 0-50.625-9.901-50.625-37.847 0-27.97 22.658-38.121 50.625-38.121h269.981c27.97 0 50.627 10.177 50.627 38.121 0.001 27.946-22.655 37.847-50.627 37.847z" />
<glyph unicode="&#xe6d5;" glyph-name="right-academic" d="M983.305 553.277l-446.055 233.77c-7.868 4.203-17.21 6.672-27.127 6.672s-19.259-2.469-27.443-6.825l0.316 0.153-446.081-233.768c-19.334-10.126-31.342-29.969-31.342-51.788 0-21.849 12.022-41.697 31.348-51.786l135.075-70.707v-238.902c0-6.427 1.080-12.597 3.061-18.322 3.149-11.712 10.724-25.494 27.186-39.006 24.854-20.388 72.274-41.708 130.102-58.493 60.142-17.457 120.788-27.070 170.768-27.070 0.026 0 0.057 0 0.088 0 2.954 0 5.9 0.032 8.839 0.094l-0.438-0.007c51.993 1.206 133.006 15.89 197.009 35.709 93.232 28.87 138.555 62.726 138.555 103.503h-0.078c0.368 2.432 0.578 5.238 0.578 8.094 0 0.006 0 0.013 0 0.019v-0.001 234.087l115.268 60.338v-311.89h51.165v366.335c0.363 2.638 0.548 5.324 0.548 8.038 0.001 21.77-12 41.597-31.34 51.753zM796.501 144.614c0-2.13-1.020-3.143-1.273-3.28 0.11 0.049 0.238 0.078 0.373 0.080h0.001v-6.418c-3.053-6.998-24.785-29.17-102.127-53.12-59.991-18.576-135.269-32.325-183-33.433-2.369-0.050-4.846-0.074-7.363-0.074-44.632 0-101.676 9.128-156.505 25.043-49.912 14.487-92.795 33.231-111.909 48.91-6.54 5.368-10.446 10.67-10.446 14.181h-0.15v0.53c0.108-0.002 0.21-0.025 0.303-0.066l-0.005 0.002c-0.33 0.17-1.238 1.229-1.238 3.127v212.118l259.838-136.017c7.868-4.197 17.206-6.667 27.119-6.678h0.004c9.435 0 18.824 2.32 27.090 6.674l259.29 135.727v-207.305zM959.632 495.064l-446.209-233.571c-2.017-1.063-4.597-1.066-6.69 0.032l-446.11 233.523c-2.36 1.233-3.886 3.762-3.886 6.443 0 0.002 0 0.004 0 0.006 0 2.794 1.573 5.221 3.882 6.442l0.040 0.019 446.075 233.763c0.983 0.531 2.151 0.844 3.392 0.848h0.001c1.153 0 2.304-0.28 3.375-0.842l446.035-233.759c2.433-1.278 3.945-3.747 3.945-6.443 0-2.739-1.486-5.22-3.85-6.461z" />
<glyph unicode="&#xe6d6;" glyph-name="right-gender" d="M266.24 379.314c-105.568 0-191.147 85.579-191.147 191.147s85.579 191.147 191.147 191.147c105.568 0 191.147-85.579 191.147-191.147s-85.579-191.147-191.147-191.147M429.916 160.861h-136.369v165.314c122.88 13.601 218.453 117.802 218.453 244.286 0 135.714-110.046 245.76-245.76 245.76s-245.76-110.046-245.76-245.76c0-126.485 95.573-230.687 218.453-244.286v-165.314h-136.369c-14.746 0-27.471-12.234-27.471-27.307 0-14.637 12.288-27.307 27.471-27.307h136.369v-136.533c0-14.691 12.234-27.307 27.307-27.307 14.637 0 27.307 12.234 27.307 27.307v136.533h136.369c14.746 0 27.471 12.234 27.471 27.307 0 14.637-12.288 27.307-27.471 27.307M757.76-2.979c-105.568 0-191.147 85.579-191.147 191.147s85.579 191.147 191.147 191.147c105.568 0 191.147-85.579 191.147-191.147s-85.579-191.147-191.147-191.147M785.067 432.453v297.151l71.543-71.543c10.65-10.65 27.58-10.268 38.229 0.382 10.377 10.322 10.868 27.798 0.382 38.229l-116.599 116.599c-5.243 5.243-12.015 7.81-18.95 7.646-6.881 0-13.762-2.458-18.896-7.646l-116.599-116.599c-10.65-10.595-10.322-27.58 0.382-38.229 10.322-10.377 27.798-10.813 38.229-0.382l67.666 67.666v-293.274c-122.88-13.6-218.453-117.802-218.453-244.286 0-135.714 110.046-245.76 245.76-245.76s245.76 110.046 245.76 245.76c0 126.485-95.573 230.687-218.453 244.286" />
<glyph unicode="&#xe6d7;" glyph-name="right-address" d="M1024 39.646c0-103.828-257.572-158.141-512.010-158.141-254.428 0-511.99 54.313-511.99 158.141 0 92.129 198.405 130.529 283.715 142.761 12.662 1.772 24.438-6.994 26.255-19.676 1.823-12.682-6.994-24.433-19.681-26.255-177.664-25.482-243.886-72.914-243.886-96.835 0-45.563 181.376-111.734 465.587-111.734 284.232 0 465.603 66.171 465.603 111.734 0 24.1-66.857 71.798-246.252 97.162-12.692 1.797-21.53 13.548-19.732 26.225 1.807 12.687 13.578 21.437 26.214 19.732 86.052-12.18 286.172-50.478 286.177-143.114v0zM413.819 590.835c0 54.134 44.037 98.176 98.156 98.176 54.144 0 98.202-44.042 98.202-98.176s-44.052-98.171-98.202-98.171c-54.124 0-98.156 44.042-98.156 98.171zM656.589 590.835c0 79.729-64.87 144.579-144.609 144.579-79.713 0-144.553-64.855-144.553-144.579 0-79.718 64.845-144.579 144.553-144.579 79.739-0.005 144.609 64.855 144.609 144.579zM511.99 840.097c142.781 0 258.939-116.152 258.939-258.918 0-197.827-200.545-420.091-259.128-480.783-58.752 59.602-258.724 277.437-258.724 480.783 0 142.766 116.147 258.918 258.913 258.918zM496.143 50.665l16.041-14.986 15.857 15.181c11.812 11.315 289.295 279.951 289.295 530.304 0 168.366-136.975 305.331-305.347 305.331-168.356 0-305.321-136.965-305.321-305.331 0-257.106 277.663-519.46 289.475-530.499v0z" />
<glyph unicode="&#xe6d8;" glyph-name="right-mail" d="M660.039 124.987c75.439 0 144.543 35.899 206.948 107.697 62.478 71.798 93.789 153.209 93.789 244.668 0 102.892-37.428 192.676-112.139 269.062-74.638 76.531-179.714 114.834-314.864 114.834-74.347 0-141.121-11.214-200.103-33.933-58.91-22.501-109.736-56.434-152.262-101.581-42.671-45.22-77.114-100.561-103.401-165.879-26.287-65.172-39.322-132.82-39.322-202.725 0-97.43 22.137-179.569 66.483-246.415 44.492-66.774 103.911-116.217 178.331-148.111 74.493-31.894 161.51-47.768 260.979-47.768 112.212 0 206.73 21.627 283.188 64.808 76.459 43.327 129.033 95.173 157.65 156.048h-90.221c-70.488-99.032-187.797-148.403-352.147-148.403-83.085 0-158.524 14.199-226.026 42.962-67.721 28.617-118.475 70.779-152.772 126.557-34.152 55.778-51.264 125.392-51.264 208.696 0 61.822 11.505 120.149 34.516 175.272 22.865 54.977 53.157 100.416 90.731 136.461 37.283 35.899 80.901 63.424 130.344 82.721 49.443 19.442 103.256 29.054 161.51 29.054 96.848 0 180.515-27.671 251.003-82.867 70.342-55.123 105.513-130.999 105.513-227.264 0-39.686-6.044-75.803-17.913-108.79-12.161-32.841-29.491-61.677-52.21-86.58-22.792-24.831-45.73-43.763-68.958-56.652-23.229-13.107-41.288-19.588-54.104-19.588-23.010 0-34.443 10.486-34.443 31.749 0 6.554 4.733 32.040 14.491 76.896l72.381 329.865h-88.983l-16.166-76.24c-37.356 60.366-87.745 90.585-151.243 90.585-36.846 0-75.512-12.889-116.363-38.812-40.56-25.923-74.784-64.881-102.382-117.237-27.598-52.21-41.36-105.003-41.36-158.233 0-58.691 16.238-110.246 48.934-154.374 32.695-44.2 76.604-66.41 131.8-66.41 54.395 0 105.659 27.088 153.646 81.483 2.039-54.468 34.152-81.556 96.411-81.556zM372.336 508.664c33.642 51.773 74.347 77.551 122.48 77.551 35.535 0 64.007-13.253 84.906-39.467 20.899-26.36 31.312-59.929 31.312-100.634 0-58.837-17.476-114.761-52.356-168.063-35.025-53.157-78.279-79.954-129.761-79.954-32.695 0-58.618 13.835-78.061 41.433-19.37 27.598-29.054 61.094-29.054 100.27 0 60.876 16.821 117.164 50.536 168.864z" />
<glyph unicode="&#xe6d9;" glyph-name="dandf" d="M930.816-128h-837.632v1024h837.632v-1024zM171.008-45.056h687.616v868.352h-687.616v-868.352zM289.28 410.624c0-51.2 41.472-93.184 93.184-93.184s93.184 41.472 93.184 93.184c0 51.2-41.472 93.184-93.184 93.184s-93.184-41.984-93.184-93.184zM382.464 444.416h501.248v-67.584h-501.248v67.584z" />
<glyph unicode="&#xe6da;" glyph-name="duot-type" d="M982.528-128h-925.696v1024h925.696v-1024zM134.656-50.176h769.536v858.112h-769.536v-858.112zM772.608 648.192h113.664v-82.944h-728.064v82.944h614.4zM271.872 337.408h-113.664v77.824h728.064v-77.824h-614.4zM635.904 109.568h-477.696v77.824h728.064v-77.824h-250.368z" />
<glyph unicode="&#xe6db;" glyph-name="dant-type" d="M1024-128h-1024v1024h1024v-1024zM74.752-48.128h868.864v864.256h-868.864v-864.256zM209.92 675.84v-69.12h253.44v-588.8h89.6v588.8h253.44v69.12h-596.48z" />
<glyph unicode="&#xe6dc;" glyph-name="image-type" horiz-adv-x="1251" d="M1197.956-128h-1137.778v1024h1138.344l-0.566-1024zM141.125-43.091h975.885v854.182h-975.885v-854.182zM119.615-34.6l-57.738 43.587 297.747 327.748 246.235-151.704 327.748 339.635 269.444-281.331-55.474-55.474-211.14 226.423-322.653-318.691-225.291 135.854-268.878-266.048zM482.458 414.284c-77.55 0-145.477 67.927-145.477 145.477s67.927 145.477 145.477 145.477 145.477-67.927 145.477-145.477-67.927-145.477-145.477-145.477z" />
<glyph unicode="&#xe6dd;" glyph-name="duodf" d="M930.816-128h-837.632v1024h837.632v-1024zM162.304-65.536h699.392v899.072h-699.392v-899.072zM278.016 670.72c0-44.544 36.352-80.896 80.896-80.896s80.896 36.352 80.896 80.896c0 44.544-36.352 80.896-80.896 80.896s-80.896-36.352-80.896-80.896zM278.016 368.64c0-44.544 36.352-80.896 80.896-80.896s80.896 36.352 80.896 80.896c0 44.544-36.352 80.896-80.896 80.896s-80.896-36.352-80.896-80.896zM278.016 86.016c0-44.544 36.352-80.896 80.896-80.896s80.896 36.352 80.896 80.896c0 44.544-36.352 80.896-80.896 80.896s-80.896-36.352-80.896-80.896zM372.224 678.912h496.128v-62.464h-496.128v62.464zM372.224 399.872h496.128v-62.464h-496.128v62.464zM372.224 120.32h496.128v-62.464h-496.128v62.464z" />
<glyph unicode="&#xe6de;" glyph-name="insert-page" d="M52.224 877.056h90.624v-970.752h-90.624v970.752zM218.112 56.832l776.192 1.536v-90.624l-776.192-1.536v90.624zM218.112 779.776l654.848 1.024v-85.504l-654.336-1.024-0.512 85.504zM218.112 542.208l776.192 1.536v-90.624l-775.68-1.536-0.512 90.624zM218.112 294.4l654.848 1.024v-85.504l-654.848-1.024v85.504z" />
<glyph unicode="&#xe6df;" glyph-name="jduox" d="M829.193-115.383h-816.576v816.576h817.080l-0.505-816.576zM85.796-51.793h665.171v679.807h-665.171v-679.807zM1024 217.707h-247.799v72.17h175.125v523.355h-506.701v-161.498h-77.721v244.266h656.591l0.505-678.293zM366.904 21.386l-258.397 236.696 60.057 60.057 193.293-182.695 317.445 445.13 64.599-57.029-376.998-502.159z" />
<glyph unicode="&#xe6e0;" glyph-name="jdanx-type" d="M507.563 269.824c-55.808 0-105.472 49.152-105.472 105.472s49.152 105.472 105.472 105.472 105.472-49.152 105.472-105.472-49.664-105.472-105.472-105.472zM950.955-68.096h-886.784v886.784h886.784v-886.784zM125.611-6.656h763.904v763.904h-763.904v-763.904z" />
<glyph unicode="&#xe6e1;" glyph-name="radio-type" d="M512-128c-281.6 0-512 230.4-512 512s230.4 512 512 512 512-230.4 512-512-230.4-512-512-512zM512 819.712c-246.784 0-435.712-188.928-435.712-435.712s188.928-435.712 435.712-435.712 435.712 188.928 435.712 435.712-188.928 435.712-435.712 435.712zM512 246.784c-73.216 0-137.216 64-137.216 137.216s64 137.216 137.216 137.216 137.216-64 137.216-137.216-64-137.216-137.216-137.216z" />
<glyph unicode="&#xe6e2;" glyph-name="nps-type" horiz-adv-x="1170" d="M585-128c-284.511 0-512 228.084-512 512s227.489 512 512 512 512-228.084 512-512-227.489-512-512-512zM585 820.566c-236.993 0-436.566-199.573-436.566-436.566s199.573-436.566 436.566-436.566 436.566 199.573 436.566 436.566-199.573 436.566-436.566 436.566zM268.415 490.32l-31.48 59.99c6.534 3.564 157.996 81.374 270.849-1.781l-40.389-54.645c-32.074 23.759-74.84 30.886-127.109 20.195-40.984-7.722-71.87-23.759-71.87-23.759zM678.847 491.509l-43.36 52.269c108.102 89.689 263.722 20.195 270.255 16.631l-28.51-61.773c-1.188 0.594-123.546 55.239-198.385-7.128zM573.121 76.918c-9.503 0-19.007 0.594-28.51 1.781-139.583 15.443-219.174 138.395-222.738 143.74l57.615 36.232c0.594-1.188 65.931-100.975 172.844-112.26 77.81-8.315 160.965 31.48 247.090 118.199l48.111-48.111c-92.065-92.659-184.13-139.583-274.413-139.583z" />
<glyph unicode="&#xe6e3;" glyph-name="votedanx-type" horiz-adv-x="1183" d="M586.71 718.745l93.418-256.299 38.924-0.599 222.765-2.994-203.602-171.864 11.976-38.924 67.069-222.166-218.573 149.708-31.738-23.953-180.847-135.336 57.488 225.759 10.18 39.523-31.139 23.953-179.050 140.126 260.492 13.175 12.575 38.924 70.063 220.969M583.117 895.999l-120.365-379.658-380.857-19.162 306.601-238.933-98.807-386.245 310.194 231.747 319.775-219.771-115.575 382.054 297.020 250.91-381.455 4.791-136.533 374.269z" />
<glyph unicode="&#xe6e4;" glyph-name="jvtian-type" d="M1024-128h-1024v1024h1024v-1024zM75.264-52.736h873.472v873.472h-873.472v-873.472zM443.904 668.672h102.4l216.064-568.832h-70.656l-56.832 147.456h-285.184l-45.568-147.968h-76.8l216.576 569.344zM377.856 299.52h235.52l-117.76 324.096-117.76-324.096z" />
<glyph unicode="&#xe6e5;" glyph-name="voteduox-type" d="M174.080 5.12l82.944 324.608-257.024 200.192 318.464 15.872 101.376 320.512 120.832-330.24-39.936-14.336-77.824 212.992-72.704-229.888-233.984-11.776 188.416-146.944-59.904-235.52 176.64 132.096 25.6-33.792zM593.92 669.696l79.872-219.136 33.28-0.512 190.464-2.56-174.080-146.944 10.24-33.28 57.344-189.952-186.88 128-27.136-20.48-154.624-115.712 49.152 193.024 8.704 33.792-26.624 20.48-153.088 119.808 222.72 11.264 10.752 33.28 59.904 188.928M590.848 821.248l-102.912-324.608-325.632-16.384 262.144-204.288-84.48-330.24 265.216 198.144 273.408-187.904-98.816 326.656 253.952 214.528-326.144 4.096-116.736 320z" />
<glyph unicode="&#xe6e6;" glyph-name="QR" d="M441.844 867.847h-385.581c-16.99 0-30.761-13.774-30.761-30.762v-385.578c0-16.99 13.771-30.762 30.761-30.762h385.581c16.988 0 30.761 13.773 30.761 30.761v385.58c0 16.99-13.773 30.762-30.761 30.762zM390.13 504.845h-282.155v278.899h282.154v-278.897zM964.521 867.847h-385.581c-16.988 0-30.761-13.774-30.761-30.762v-385.578c0-16.99 13.774-30.762 30.761-30.762h385.578c16.99 0 30.762 13.773 30.762 30.761v385.58c0 16.99-13.771 30.762-30.761 30.762zM912.808 504.845h-282.152v278.899h282.154v-278.897h-0.001zM444.012 346.795h-385.578c-16.99 0-30.762-13.773-30.762-30.761v-385.578c0-16.99 13.773-30.761 30.761-30.761h385.58c16.99 0 30.762 13.771 30.762 30.761v385.578c0 16.988-13.771 30.761-30.762 30.761zM392.301-16.205h-282.154v278.898h282.152v-278.899zM716.387-1.943h94.411v-98.364h-94.411v98.364zM900.872-100.307h63.651c16.988 0 30.762 13.771 30.762 30.761v67.601h-94.413v-98.362zM964.521 346.949h-51.325v-171.462h-90.074v171.462h-245.962c-16.988 0-30.761-13.771-30.761-30.761v-385.734c0-16.988 13.774-30.76 30.761-30.76h52.939v251.918h86.287v-63.484h278.898v228.059c0 16.99-13.773 30.761-30.762 30.761z" />
<glyph unicode="&#xe6e7;" glyph-name="edit" d="M790.876 877.668h-773.043v-773.043h85.895v687.149h687.147v85.894zM232.567 662.932v-773.044h214.733v85.893h-128.839v601.261h601.257v-171.785h85.891v257.678h-773.043zM552.069-69.76l151.844 30.365-121.479 121.474-30.365-151.839zM650.085 136.479l91.113-91.097 242.937 242.938-91.093 91.097-242.959-242.94z" />
<glyph unicode="&#xe6e8;" glyph-name="bar-chart" d="M739.009 546.343v-572.105h-52.672v687.4h-239.449v-687.521h-52.672v802.816h-239.57v-802.816h-52.793v876.726h-55.342v-932.068h932.068v627.568h-239.57zM338.754-25.883h-128.766v346.127h128.766v-346.127zM338.754 375.586h-128.766v346.006h128.766v-346.006zM630.996-25.883h-128.766v288.358h128.766v-288.358zM630.996 317.938h-128.766v288.358h128.766v-288.358zM923.238-25.883h-128.766v230.711h128.766v-230.711zM923.238 260.169h-128.766v230.832h128.766v-230.832z" />
<glyph unicode="&#xe6e9;" glyph-name="line-chart" d="M103.007 521.929l97.212 97.212c11.772-5.947 25.122-9.345 39.322-9.345 12.379 0 24.273 2.67 34.953 7.282l106.435-118.572c-7.403-12.864-11.651-27.671-11.651-43.569 0-48.424 39.443-87.745 87.745-87.745 48.424 0 87.745 39.322 87.745 87.745 0 5.583-0.607 11.165-1.578 16.384l71.968 40.171c15.656-14.321 36.409-23.059 59.225-23.059 12.379 0 24.273 2.67 35.074 7.282l106.314-118.45c-7.282-12.864-11.529-27.671-11.529-43.448 0-48.424 39.322-87.745 87.745-87.745s87.745 39.322 87.745 87.745-39.443 87.745-87.745 87.745c-12.379 0-24.273-2.67-34.953-7.282l-106.314 118.45c7.403 12.864 11.651 27.671 11.651 43.448 0 48.424-39.443 87.745-87.745 87.745s-87.867-39.2-87.867-87.624c0-5.583 0.607-11.044 1.578-16.384l-72.090-40.171c-15.656 14.321-36.409 23.059-59.225 23.059-12.379 0-24.273-2.67-34.953-7.282l-106.314 118.572c7.403 12.864 11.651 27.671 11.651 43.569 0 48.302-39.443 87.745-87.745 87.745-48.424 0-87.745-39.443-87.745-87.745 0-14.199 3.398-27.549 9.345-39.322l-58.133-58.133v250.008h-55.342v-931.461h926.121v55.342h-870.901v547.832zM891.987 366.342c17.84 0 32.404-14.564 32.404-32.404s-14.564-32.404-32.404-32.404-32.404 14.564-32.404 32.404 14.564 32.404 32.404 32.404zM674.505 608.704c17.84 0 32.404-14.564 32.404-32.404s-14.564-32.404-32.404-32.404-32.404 14.564-32.404 32.404c0 17.962 14.564 32.404 32.404 32.404zM457.023 487.462c17.84 0 32.404-14.564 32.404-32.404s-14.564-32.404-32.404-32.404-32.404 14.564-32.404 32.404 14.564 32.404 32.404 32.404zM239.662 730.066c17.84 0 32.404-14.564 32.404-32.404s-14.564-32.404-32.404-32.404-32.404 14.564-32.404 32.404 14.442 32.404 32.404 32.404zM211.991 450.568h55.342v-66.871h-55.342v66.871zM211.991 329.326h55.342v-66.992h-55.342v66.992zM211.991 571.931h55.342v-66.871h-55.342v66.871zM211.991 207.963h55.342v-66.871h-55.342v66.871zM211.991 86.721h55.342v-66.871h-55.342v66.871zM646.956 450.568h55.342v-66.871h-55.342v66.871zM646.956 329.326h55.342v-66.992h-55.342v66.992zM646.956 207.963h55.342v-66.871h-55.342v66.871zM646.956 86.721h55.342v-66.871h-55.342v66.871zM429.473 329.326h55.342v-66.992h-55.342v66.992zM429.473 207.963h55.342v-66.871h-55.342v66.871zM429.473 86.721h55.342v-66.871h-55.342v66.871zM864.438 207.963h55.342v-66.871h-55.342v66.871zM864.438 86.721h55.342v-66.871h-55.342v66.871z" />
<glyph unicode="&#xe6ea;" glyph-name="pie-chart" d="M843.199 710.163c-88.11 87.988-205.103 136.533-329.5 136.533-124.518 0-241.512-48.545-329.622-136.533-87.988-87.988-136.412-204.982-136.412-329.5s48.424-241.512 136.412-329.5c77.065-76.944 176.34-123.79 283.261-134.227 7.646-0.728 15.292-1.335 22.938-1.699 7.767-0.485 15.413-0.607 23.302-0.607 124.518 0 241.512 48.424 329.5 136.412 87.988 88.11 136.533 205.103 136.533 329.5 0.121 124.64-48.424 241.634-136.412 329.622zM203.131 111.844c-0.85 1.092-1.699 2.063-2.67 3.155l-3.641 4.369c-0.85 1.092-1.699 2.185-2.67 3.277-1.214 1.456-2.306 2.913-3.52 4.369-0.85 1.092-1.699 2.185-2.67 3.277-1.092 1.456-2.185 2.913-3.398 4.369-0.85 1.092-1.699 2.185-2.549 3.398-1.092 1.456-2.185 3.034-3.277 4.49-0.85 1.092-1.578 2.185-2.427 3.398-1.092 1.578-2.063 3.155-3.155 4.733-0.85 1.092-1.578 2.185-2.306 3.277-1.092 1.699-2.185 3.277-3.277 4.976-0.728 1.092-1.335 2.063-1.942 3.155-1.214 1.942-2.306 3.762-3.52 5.704-0.485 0.85-0.971 1.699-1.456 2.427-1.699 2.791-3.277 5.583-4.855 8.374-0.243 0.364-0.485 0.728-0.607 1.092-1.335 2.427-2.791 4.855-4.005 7.282-0.485 0.971-0.971 1.942-1.578 2.913-0.971 1.82-1.942 3.762-2.913 5.583-0.607 1.214-1.214 2.306-1.699 3.52-0.85 1.699-1.699 3.398-2.427 5.097-0.607 1.214-1.214 2.427-1.699 3.641-0.85 1.699-1.578 3.398-2.306 4.976-0.607 1.335-1.092 2.549-1.699 3.762-0.728 1.699-1.456 3.398-2.185 4.976-0.607 1.335-1.092 2.67-1.578 3.884-0.728 1.699-1.335 3.398-1.942 5.097-0.485 1.335-0.971 2.67-1.456 3.884-0.728 1.699-1.335 3.52-1.942 5.219-0.485 1.214-0.971 2.549-1.456 3.884-0.607 1.699-1.214 3.52-1.82 5.34-0.485 1.214-0.85 2.427-1.335 3.762-0.607 1.82-1.214 3.762-1.82 5.704-0.364 1.092-0.728 2.306-1.092 3.398-0.728 2.185-1.335 4.49-1.942 6.675l-0.728 2.549c-0.85 3.155-1.699 6.19-2.427 9.345-0.243 0.607-0.364 1.214-0.485 1.82-0.607 2.427-1.214 4.976-1.82 7.403-0.243 1.092-0.485 2.185-0.728 3.398-0.485 2.063-0.85 4.126-1.214 6.068-0.243 1.335-0.485 2.549-0.728 3.884-0.364 1.82-0.728 3.762-1.092 5.704l-0.728 4.005c-0.364 1.82-0.607 3.762-0.85 5.583-0.243 1.456-0.485 2.791-0.607 4.126-0.243 1.82-0.485 3.641-0.728 5.583-0.243 1.335-0.364 2.791-0.485 4.126-0.243 1.82-0.485 3.641-0.607 5.583-0.121 1.335-0.364 2.791-0.485 4.126-0.243 1.82-0.364 3.762-0.485 5.704-0.121 1.335-0.243 2.791-0.364 4.126 0 0.607-0.121 1.092-0.121 1.578h342.85l-242.119-242.483c-0.364 0.485-0.85 0.85-1.214 1.335zM485.907-29.059c-0.607 0-1.092 0.121-1.578 0.121-1.335 0.121-2.791 0.243-4.126 0.364-1.82 0.243-3.641 0.364-5.583 0.485-0.243 0-0.364 0.121-0.607 0.121-1.214 0.121-2.427 0.243-3.762 0.364-1.82 0.243-3.641 0.364-5.461 0.607h-0.243c-1.335 0.121-2.791 0.364-4.005 0.485-1.82 0.243-3.762 0.485-5.583 0.728-1.335 0.243-2.791 0.364-4.126 0.607-1.82 0.243-3.762 0.607-5.583 0.85-1.214 0.243-2.427 0.364-3.641 0.607-0.485 0.121-0.85 0.121-1.214 0.243-1.699 0.364-3.277 0.607-4.976 0.971-0.85 0.243-1.699 0.364-2.67 0.485-0.728 0.121-1.456 0.364-2.185 0.485-1.699 0.364-3.398 0.728-4.976 1.092l-1.456 0.364c-0.971 0.243-1.82 0.364-2.791 0.607l-6.19 1.456-2.913 0.728c-2.791 0.728-5.704 1.456-8.495 2.185-0.121 0.121-0.121 0.121-0.243 0.121-0.85 0.243-1.578 0.485-2.427 0.728-2.185 0.607-4.49 1.214-6.796 1.942-0.121 0-0.121 0.121-0.121 0.121-1.092 0.364-2.185 0.728-3.277 0.971-1.82 0.607-3.641 1.092-5.461 1.699-0.485 0.243-0.971 0.364-1.456 0.485-0.85 0.364-1.578 0.607-2.427 0.85-1.578 0.485-3.277 1.092-4.855 1.699-0.485 0.121-0.85 0.364-1.335 0.485-0.971 0.364-1.942 0.728-3.034 1.092-1.578 0.607-3.277 1.214-4.855 1.82-0.243 0.121-0.364 0.121-0.607 0.243-1.214 0.485-2.306 0.971-3.641 1.456-1.699 0.728-3.398 1.335-5.097 2.063-1.214 0.485-2.549 1.092-3.762 1.578l-5.097 2.185c-1.214 0.485-2.306 0.971-3.398 1.456l-0.728 0.364c-1.578 0.728-3.155 1.456-4.612 2.063-0.971 0.485-1.82 0.85-2.791 1.214l-1.456 0.728c-1.578 0.728-3.155 1.456-4.612 2.306-0.728 0.364-1.335 0.607-1.942 0.971s-1.214 0.607-1.82 0.971c-1.699 0.85-3.52 1.82-5.219 2.791-0.607 0.243-1.092 0.485-1.578 0.85l-1.456 0.728-7.282 4.005c-0.364 0.243-0.607 0.364-0.971 0.485-0.121 0.121-0.243 0.121-0.364 0.243-2.549 1.456-5.097 2.913-7.646 4.49-0.728 0.485-1.456 0.85-2.185 1.335-0.243 0.243-0.485 0.364-0.728 0.485-1.699 1.092-3.398 2.063-5.097 3.155-0.728 0.485-1.335 0.85-2.063 1.335-0.607 0.364-1.092 0.728-1.699 1.092-1.456 0.971-2.913 1.82-4.248 2.791-0.607 0.364-1.092 0.728-1.578 1.092-0.85 0.607-1.578 1.092-2.427 1.578-1.456 0.971-2.913 1.942-4.248 2.913-0.243 0.243-0.485 0.364-0.607 0.485-1.092 0.728-2.063 1.456-3.155 2.185-1.456 1.092-3.034 2.185-4.49 3.277-1.214 0.85-2.306 1.699-3.398 2.549-1.456 1.092-2.913 2.185-4.369 3.398-1.092 0.85-2.063 1.578-3.155 2.427l-0.364 0.364c-1.335 1.092-2.791 2.185-4.126 3.398-0.971 0.728-1.82 1.456-2.791 2.185-0.243 0.243-0.485 0.485-0.728 0.607-1.335 1.214-2.791 2.306-4.126 3.52-0.971 0.85-1.82 1.578-2.791 2.427l-0.364 0.364c-0.485 0.364-0.85 0.728-1.335 1.092l242.483 242.483 0.121-343.7zM485.907 408.333h-381.929c6.554 99.275 48.302 191.753 119.3 262.751 2.306 2.306 4.733 4.612 7.039 6.796 0.728 0.728 1.578 1.456 2.306 2.185 1.578 1.456 3.155 3.034 4.733 4.49l2.913 2.549 4.369 4.005c1.092 0.85 2.063 1.699 3.155 2.67l4.369 3.641c1.092 0.85 2.185 1.699 3.277 2.67 1.456 1.214 2.913 2.306 4.369 3.52 1.092 0.85 2.185 1.699 3.277 2.67 1.456 1.092 2.913 2.185 4.369 3.398 1.092 0.85 2.185 1.699 3.398 2.549 1.456 1.092 3.034 2.185 4.49 3.277 1.092 0.85 2.185 1.578 3.398 2.427 1.578 1.092 3.155 2.063 4.733 3.277l3.277 2.185c1.699 1.092 3.277 2.185 4.976 3.277 1.092 0.728 2.063 1.335 3.155 1.942 1.942 1.214 3.884 2.306 5.825 3.52 0.85 0.485 1.578 0.971 2.427 1.456 2.791 1.699 5.583 3.277 8.374 4.855 0.364 0.121 0.728 0.364 0.971 0.485 2.427 1.456 4.855 2.791 7.403 4.126l2.913 1.456c1.82 0.971 3.762 1.942 5.704 2.913 1.092 0.607 2.185 1.092 3.398 1.699 1.699 0.85 3.52 1.699 5.219 2.549 1.214 0.607 2.427 1.092 3.641 1.699 1.699 0.85 3.398 1.578 5.097 2.306 1.214 0.485 2.427 1.092 3.762 1.578l5.097 2.185c1.214 0.607 2.549 1.092 3.762 1.578 1.699 0.728 3.398 1.456 5.097 2.063 1.335 0.485 2.67 1.092 3.884 1.456 1.699 0.728 3.52 1.335 5.219 1.942 1.335 0.485 2.549 0.85 3.762 1.335l5.461 1.82c1.214 0.364 2.427 0.85 3.762 1.214l5.825 1.82c1.092 0.364 2.185 0.728 3.398 1.092 2.185 0.728 4.49 1.335 6.796 1.942 0.85 0.243 1.699 0.485 2.427 0.728 3.155 0.85 6.19 1.699 9.345 2.427 0.607 0.243 1.214 0.364 1.699 0.485l7.646 1.82 3.277 0.728c2.063 0.485 4.126 0.85 6.068 1.214 1.335 0.243 2.549 0.485 3.762 0.728 1.942 0.364 3.884 0.728 5.704 1.092l4.005 0.728c1.82 0.364 3.762 0.607 5.583 0.85 1.335 0.243 2.791 0.485 4.126 0.607 1.82 0.243 3.641 0.485 5.583 0.728 1.335 0.243 2.791 0.364 4.126 0.485 1.82 0.243 3.641 0.485 5.583 0.607 1.456 0.121 2.791 0.364 4.126 0.485 1.942 0.243 3.762 0.364 5.704 0.485 1.335 0.121 2.791 0.243 4.126 0.364 0.607 0 1.092 0.121 1.578 0.121l-0.243-382.051zM803.999 90.241c-70.997-70.997-163.476-112.746-262.751-119.3v819.443c99.275-6.554 191.753-48.302 262.751-119.3 77.551-77.672 120.271-180.709 120.271-290.422s-42.72-212.749-120.271-290.422z" />
<glyph unicode="&#xe6eb;" glyph-name="pie-chart-" d="M843.988 716.777c-88.11 87.988-205.103 136.533-329.5 136.533-124.518 0-241.512-48.545-329.622-136.533-2.791-2.791-5.461-5.583-8.131-8.374-77.43-81.435-122.334-186.049-127.674-297.946-0.364-7.767-0.607-15.413-0.607-23.18 0-7.889 0.243-15.534 0.607-23.302 5.34-111.897 50.244-216.633 127.674-297.946 2.67-2.791 5.461-5.583 8.131-8.374 2.791-2.791 5.583-5.461 8.374-8.131 5.704-5.34 11.408-10.559 17.234-15.534 78.643-67.963 176.583-107.163 280.713-112.261 7.767-0.364 15.413-0.607 23.302-0.607 124.518 0 241.512 48.424 329.5 136.412 87.988 88.11 136.533 205.103 136.533 329.5 0 124.64-48.545 241.634-136.533 329.743zM245.669 697.723c1.092 0.85 2.063 1.82 3.155 2.67 1.456 1.214 2.913 2.427 4.248 3.641 1.092 0.85 2.185 1.699 3.277 2.67 1.456 1.214 2.913 2.306 4.369 3.52 1.092 0.85 2.185 1.699 3.277 2.67 1.456 1.092 2.913 2.185 4.369 3.398 1.092 0.85 2.185 1.699 3.398 2.549 1.456 1.092 3.034 2.185 4.49 3.277 1.092 0.85 2.185 1.578 3.398 2.427 1.578 1.092 3.155 2.063 4.733 3.155 1.092 0.85 2.185 1.578 3.277 2.306 1.699 1.092 3.277 2.185 4.976 3.277 1.092 0.728 2.063 1.335 3.155 1.942 1.942 1.214 3.762 2.306 5.704 3.52 0.85 0.485 1.699 0.971 2.427 1.456 2.791 1.699 5.583 3.277 8.374 4.855 0.364 0.243 0.728 0.485 1.092 0.607 2.427 1.335 4.855 2.791 7.282 4.005 0.971 0.485 1.942 0.971 2.913 1.578 1.82 0.971 3.762 1.942 5.583 2.913 1.214 0.607 2.306 1.214 3.398 1.699 1.699 0.85 3.52 1.699 5.219 2.549 1.214 0.607 2.427 1.092 3.641 1.699 1.699 0.85 3.398 1.578 4.976 2.306 1.335 0.607 2.549 1.092 3.762 1.699 1.699 0.728 3.398 1.456 4.976 2.185 1.335 0.607 2.67 1.092 3.884 1.578 1.699 0.728 3.398 1.335 5.097 1.942 1.335 0.485 2.67 0.971 3.884 1.456 1.699 0.728 3.52 1.335 5.219 1.942 1.214 0.485 2.549 0.971 3.762 1.456l5.461 1.82c1.214 0.485 2.427 0.85 3.762 1.335 1.82 0.607 3.762 1.214 5.704 1.82 1.092 0.364 2.306 0.728 3.398 1.092 2.185 0.728 4.49 1.335 6.675 1.942l2.549 0.728c3.155 0.85 6.19 1.699 9.345 2.427 0.607 0.243 1.214 0.364 1.82 0.485 2.427 0.607 4.976 1.214 7.525 1.82 1.092 0.243 2.185 0.485 3.398 0.728 2.063 0.485 4.126 0.85 6.068 1.214 1.335 0.243 2.549 0.485 3.884 0.728 1.82 0.364 3.762 0.728 5.704 1.092l4.005 0.728c1.82 0.364 3.762 0.607 5.583 0.85 1.456 0.243 2.791 0.485 4.126 0.607 1.82 0.243 3.641 0.485 5.583 0.728 1.335 0.243 2.791 0.364 4.126 0.485 1.82 0.243 3.641 0.485 5.583 0.607 1.335 0.243 2.791 0.364 4.126 0.485 1.82 0.243 3.762 0.364 5.704 0.485 1.335 0.121 2.791 0.243 4.126 0.364 0.607 0 1.092 0.121 1.578 0.121v-180.345c-0.364 0-0.607-0.121-0.971-0.121-0.85-0.121-1.578-0.243-2.306-0.364-1.092-0.121-2.063-0.243-3.155-0.485-0.85-0.121-1.578-0.243-2.427-0.364-0.971-0.121-1.942-0.364-3.034-0.485-0.85-0.121-1.578-0.364-2.427-0.485-0.971-0.243-1.942-0.364-3.034-0.607-0.85-0.243-1.699-0.364-2.427-0.607-0.971-0.243-1.942-0.364-2.913-0.607-0.85-0.243-1.699-0.364-2.427-0.607l-2.913-0.728c-0.85-0.243-1.699-0.485-2.427-0.607-0.971-0.364-1.942-0.607-2.913-0.85-0.85-0.243-1.578-0.485-2.427-0.728-0.971-0.243-1.942-0.607-2.913-0.85-0.85-0.243-1.578-0.485-2.306-0.728-1.092-0.364-2.063-0.728-3.155-1.092-0.728-0.243-1.335-0.485-2.063-0.728-1.699-0.607-3.398-1.092-4.976-1.699-0.728-0.243-1.456-0.607-2.063-0.85-0.971-0.364-1.942-0.728-3.034-1.092-0.85-0.364-1.578-0.728-2.306-0.971-0.971-0.364-1.82-0.728-2.67-1.092s-1.578-0.728-2.427-1.092l-2.549-1.092c-0.85-0.364-1.578-0.728-2.427-1.092s-1.578-0.728-2.427-1.214c-0.85-0.364-1.578-0.728-2.427-1.214-0.85-0.364-1.578-0.728-2.427-1.214s-1.578-0.85-2.427-1.214c-0.85-0.485-1.578-0.85-2.306-1.214-0.85-0.485-1.699-0.85-2.427-1.335s-1.456-0.85-2.185-1.335c-0.85-0.485-1.578-0.85-2.427-1.335-0.728-0.485-1.456-0.85-2.185-1.335-0.85-0.485-1.578-0.971-2.306-1.456s-1.456-0.971-2.185-1.335c-0.85-0.485-1.578-0.971-2.306-1.456l-2.185-1.456c-0.728-0.485-1.578-1.092-2.306-1.578s-1.456-0.971-2.063-1.456c-0.728-0.607-1.578-1.092-2.306-1.578s-1.335-0.971-1.942-1.456c-1.578-1.214-3.277-2.427-4.855-3.641-0.607-0.485-1.092-0.85-1.578-1.214-0.121-0.121-0.243-0.121-0.243-0.243l-128.281 127.795c0.364 0.364 0.85 0.85 1.335 1.214zM104.767 416.647l0.364 4.005c0.121 1.942 0.364 3.762 0.485 5.704 0.243 1.456 0.364 2.791 0.485 4.248 0.243 1.82 0.485 3.641 0.607 5.583 0.243 1.335 0.364 2.791 0.485 4.126 0.243 1.82 0.485 3.641 0.728 5.583 0.243 1.335 0.485 2.791 0.607 4.126 0.364 1.82 0.607 3.641 0.85 5.583 0.243 1.335 0.485 2.791 0.728 4.005 0.364 1.942 0.728 3.762 1.092 5.704 0.243 1.335 0.485 2.67 0.728 3.884 0.485 1.942 0.85 3.884 1.214 5.947 0.243 1.214 0.485 2.306 0.85 3.52 0.485 2.185 0.971 4.369 1.578 6.554 0.243 0.971 0.485 1.82 0.728 2.791 0.728 3.155 1.578 6.19 2.427 9.345 0.121 0.364 0.243 0.728 0.364 0.971 0.728 2.791 1.578 5.583 2.306 8.253 0.364 0.971 0.607 2.063 0.971 3.034 0.728 2.063 1.335 4.005 1.942 6.068 0.485 1.214 0.85 2.306 1.214 3.52 0.607 1.82 1.214 3.762 1.82 5.583 0.485 1.214 0.971 2.427 1.335 3.762 0.728 1.82 1.335 3.52 1.942 5.34 0.485 1.335 0.971 2.549 1.456 3.762 0.607 1.699 1.335 3.52 2.063 5.097 0.485 1.335 1.092 2.549 1.578 3.884 0.728 1.699 1.456 3.398 2.185 4.976 0.607 1.335 1.092 2.549 1.699 3.762 0.728 1.699 1.578 3.398 2.306 5.097 0.607 1.214 1.092 2.427 1.699 3.641 0.85 1.699 1.699 3.52 2.427 5.097 0.607 1.214 1.214 2.306 1.699 3.52 0.971 1.82 1.82 3.641 2.791 5.461 0.607 0.971 1.092 2.063 1.578 3.155 1.092 2.063 2.306 4.126 3.398 6.19 0.485 0.728 0.85 1.456 1.214 2.185 1.578 2.791 3.277 5.583 4.855 8.374 0.364 0.485 0.607 0.971 0.971 1.456 1.335 2.185 2.791 4.49 4.126 6.675l1.82 2.913c1.092 1.699 2.306 3.52 3.398 5.34 0.728 1.092 1.456 2.063 2.185 3.155l3.277 4.733c0.85 1.092 1.578 2.185 2.306 3.277 1.092 1.578 2.185 3.034 3.277 4.612 0.85 1.092 1.699 2.185 2.427 3.398 1.092 1.456 2.185 2.913 3.398 4.369 0.85 1.092 1.699 2.185 2.67 3.277 1.214 1.456 2.306 2.913 3.52 4.369 0.85 1.092 1.82 2.185 2.67 3.277 1.214 1.456 2.427 2.913 3.641 4.248 0.971 1.092 1.82 2.063 2.791 3.155 0.364 0.364 0.728 0.85 1.092 1.214l127.552-127.552c-22.816-29.006-38.229-62.745-45.147-98.789-0.121-0.485-0.121-0.971-0.243-1.335-0.364-2.063-0.728-4.248-1.092-6.432-0.121-0.728-0.243-1.456-0.364-2.063-0.121-0.85-0.243-1.82-0.364-2.67-0.121-1.214-0.364-2.306-0.485-3.52v-0.121h-180.224v1.578zM205.134 117.001c-0.364 0.485-0.85 0.85-1.214 1.335-0.85 1.092-1.699 2.063-2.67 3.155l-3.641 4.369c-0.85 1.092-1.699 2.185-2.67 3.277-1.214 1.456-2.306 2.913-3.52 4.369-0.85 1.092-1.699 2.185-2.67 3.277-1.092 1.456-2.185 2.913-3.398 4.369-0.85 1.092-1.699 2.185-2.549 3.398-1.092 1.456-2.185 3.034-3.277 4.49-0.85 1.092-1.578 2.185-2.427 3.398-1.092 1.578-2.063 3.155-3.277 4.733l-2.185 3.277c-1.092 1.699-2.185 3.277-3.277 4.976-0.728 1.092-1.335 2.063-1.942 3.155-1.214 1.942-2.306 3.884-3.52 5.704-0.485 0.85-0.971 1.699-1.456 2.427-1.699 2.791-3.277 5.583-4.855 8.374-0.243 0.364-0.364 0.728-0.607 0.971-1.456 2.427-2.791 4.855-4.126 7.403l-1.456 2.913c-0.971 1.82-1.942 3.762-2.913 5.704-0.607 1.092-1.092 2.185-1.699 3.398-0.85 1.699-1.699 3.52-2.67 5.219-0.607 1.214-1.092 2.427-1.699 3.641-0.85 1.699-1.578 3.398-2.306 5.097-0.607 1.214-1.092 2.427-1.699 3.762l-2.185 5.097c-0.607 1.214-1.092 2.549-1.578 3.762-0.728 1.699-1.456 3.398-2.063 5.097-0.485 1.335-0.971 2.67-1.456 3.884-0.728 1.699-1.335 3.52-1.942 5.219-0.485 1.335-0.971 2.549-1.456 3.762l-1.82 5.461c-0.485 1.214-0.85 2.427-1.214 3.762-0.728 1.942-1.214 3.884-1.82 5.825-0.364 1.092-0.728 2.185-1.092 3.398-0.728 2.185-1.335 4.49-1.942 6.796-0.243 0.85-0.485 1.699-0.728 2.427-0.85 3.155-1.699 6.19-2.427 9.345-0.243 0.607-0.364 1.214-0.485 1.82-0.607 2.427-1.214 4.976-1.82 7.525l-0.728 3.277c-0.485 2.063-0.85 4.126-1.214 6.068-0.243 1.335-0.485 2.549-0.728 3.762-0.364 1.942-0.728 3.884-1.092 5.704l-0.728 4.005c-0.364 1.82-0.607 3.762-0.85 5.583-0.243 1.335-0.485 2.791-0.607 4.126-0.243 1.82-0.485 3.641-0.728 5.583-0.243 1.335-0.364 2.791-0.485 4.126-0.243 1.82-0.485 3.641-0.607 5.583-0.121 1.456-0.364 2.791-0.485 4.126-0.243 1.942-0.364 3.762-0.485 5.704-0.121 1.335-0.243 2.791-0.364 4.126 0 0.607-0.121 1.092-0.121 1.578h180.345c0-0.121 0-0.243 0.121-0.485v-0.243c0.121-0.85 0.243-1.699 0.364-2.427 0.243-1.092 0.364-2.063 0.485-3.155 0.121-0.85 0.243-1.699 0.364-2.427 0.121-0.243 0.121-0.485 0.121-0.728 0.121-0.243 0.121-0.364 0.121-0.485l0.364-1.82c0.121-0.85 0.243-1.578 0.485-2.427 0.243-0.971 0.364-1.942 0.607-3.034 0.121-0.728 0.243-1.335 0.364-1.942 0.121-0.243 0.121-0.485 0.121-0.607l0.728-2.913c0.121-0.85 0.364-1.578 0.485-2.427 0.243-0.971 0.485-2.063 0.728-3.034 0-0.121 0.121-0.121 0.121-0.121 0.121-0.364 0.121-0.728 0.243-0.971 0.121-0.364 0.243-0.85 0.364-1.214 0.243-1.092 0.607-2.063 0.85-3.155 0.243-0.728 0.485-1.456 0.607-2.185 0.243-0.607 0.364-1.335 0.607-1.942 0.121-0.485 0.243-0.85 0.364-1.335 0.121-0.121 0.121-0.243 0.121-0.364 0.243-0.607 0.364-1.092 0.485-1.699 0.607-1.699 1.092-3.52 1.699-5.097 0.121-0.364 0.243-0.728 0.364-0.971l0.364-1.092c0.364-0.971 0.728-2.063 1.092-3.155 0.364-0.728 0.607-1.456 0.85-2.063 0.364-0.971 0.728-1.942 1.092-3.034h0.121c0-0.121 0-0.121 0.121-0.243 0.243-0.728 0.607-1.335 0.85-2.063 0.364-0.971 0.728-1.82 1.092-2.791 0.364-0.728 0.728-1.578 0.971-2.306 0.243-0.607 0.485-1.092 0.728-1.699 0.121-0.364 0.364-0.728 0.485-0.971 0.364-0.728 0.728-1.578 1.092-2.306 0.485-0.85 0.85-1.699 1.214-2.67 0.364-0.728 0.728-1.578 1.092-2.306l0.364-0.728c0.364-0.607 0.607-1.214 0.971-1.82 0.364-0.728 0.85-1.578 1.214-2.306 0.485-0.85 0.85-1.699 1.335-2.427 0.364-0.607 0.607-1.092 0.85-1.578l0.121-0.121c0.121-0.243 0.243-0.485 0.364-0.607 0.485-0.85 0.971-1.578 1.335-2.427 0.485-0.728 0.85-1.456 1.335-2.306 0.485-0.728 0.971-1.578 1.456-2.306 0.121-0.243 0.364-0.485 0.485-0.728 0.364-0.485 0.607-0.971 0.85-1.456 0.485-0.85 0.971-1.578 1.456-2.306s0.971-1.456 1.335-2.185c0.364-0.485 0.607-0.971 0.971-1.456 0.243-0.243 0.364-0.607 0.607-0.85v-0.121c0.485-0.728 0.971-1.456 1.456-2.063 0.607-0.85 1.214-1.699 1.699-2.549 0.607-0.85 1.092-1.578 1.699-2.427 0.121-0.243 0.243-0.364 0.364-0.485s0.243-0.243 0.243-0.364c0.728-0.971 1.335-1.82 2.063-2.791 0.485-0.728 0.971-1.335 1.578-2.063s1.092-1.456 1.699-2.185c0.121-0.121 0.243-0.243 0.243-0.364l-127.917-127.795zM486.817-22.566c-0.607 0-1.092 0.121-1.578 0.121-1.335 0.121-2.791 0.243-4.126 0.364-1.82 0.243-3.641 0.364-5.583 0.485-0.243 0-0.364 0.121-0.607 0.121-1.214 0.121-2.427 0.243-3.762 0.364-1.82 0.243-3.641 0.364-5.461 0.607h-0.243c-1.335 0.243-2.791 0.364-4.005 0.485-1.82 0.243-3.762 0.485-5.583 0.728-1.335 0.243-2.791 0.364-4.126 0.607-1.82 0.243-3.762 0.607-5.583 0.85-1.214 0.243-2.427 0.485-3.641 0.607-0.485 0.121-0.85 0.121-1.214 0.243-1.699 0.364-3.277 0.607-4.855 0.971-0.971 0.243-1.82 0.364-2.67 0.485-0.728 0.243-1.456 0.364-2.185 0.485-1.699 0.364-3.398 0.728-4.976 1.092l-1.456 0.364c-0.971 0.243-1.942 0.364-2.913 0.607l-6.19 1.456-2.913 0.728-8.374 2.185c-0.121 0.121-0.243 0.121-0.364 0.121-0.85 0.243-1.578 0.485-2.427 0.728-2.185 0.607-4.49 1.214-6.675 1.942-0.121 0.121-0.243 0.121-0.364 0.121-1.092 0.364-2.063 0.607-3.155 0.971-1.82 0.607-3.641 1.214-5.461 1.699-0.607 0.243-1.092 0.364-1.578 0.607-0.85 0.243-1.578 0.485-2.427 0.85-1.578 0.607-3.277 1.092-4.855 1.699-0.485 0.121-0.85 0.364-1.335 0.485l-2.913 1.092c-1.578 0.607-3.277 1.214-4.855 1.82-0.243 0.121-0.485 0.121-0.607 0.243-1.214 0.485-2.427 0.85-3.641 1.335-1.699 0.728-3.398 1.335-5.097 2.063-1.214 0.485-2.549 1.092-3.762 1.578l-5.097 2.185c-1.092 0.485-2.185 0.971-3.398 1.456-0.243 0.121-0.607 0.364-0.85 0.485-1.578 0.728-3.155 1.335-4.612 2.063-0.85 0.485-1.699 0.85-2.67 1.214-0.607 0.243-1.092 0.485-1.699 0.85-1.456 0.728-3.034 1.456-4.49 2.185-0.728 0.364-1.335 0.607-1.942 0.971-0.728 0.364-1.335 0.607-1.942 0.971-1.699 0.85-3.398 1.699-5.097 2.67l-1.456 0.728c-0.607 0.364-1.092 0.607-1.578 0.85-2.427 1.335-4.855 2.67-7.16 4.005-0.364 0.243-0.728 0.364-0.971 0.485s-0.364 0.243-0.485 0.364c-2.427 1.456-4.976 2.913-7.403 4.369-0.728 0.485-1.578 0.971-2.306 1.456-0.243 0.121-0.364 0.243-0.607 0.364-1.699 0.971-3.398 2.063-4.976 3.155-0.728 0.485-1.456 0.85-2.185 1.335-0.607 0.364-1.092 0.728-1.578 1.092-1.335 0.85-2.791 1.82-4.126 2.67-0.607 0.485-1.214 0.85-1.699 1.214-0.85 0.485-1.578 1.092-2.306 1.578-1.456 0.971-2.791 1.82-4.126 2.913-0.243 0.243-0.607 0.364-0.85 0.607-1.092 0.728-2.063 1.456-3.155 2.185-1.456 1.092-3.034 2.185-4.49 3.277-1.214 0.85-2.306 1.699-3.398 2.427-1.456 1.092-2.913 2.185-4.369 3.398-1.092 0.85-2.063 1.578-3.155 2.427-0.243 0.121-0.364 0.243-0.485 0.364-1.335 1.092-2.791 2.185-4.126 3.277-0.85 0.728-1.699 1.335-2.67 2.063-0.243 0.243-0.607 0.485-0.85 0.728-1.456 1.092-2.791 2.306-4.126 3.52-0.85 0.728-1.699 1.456-2.67 2.185-0.243 0.243-0.364 0.364-0.607 0.485-0.364 0.364-0.85 0.728-1.214 1.092l127.552 127.552c31.797-25.122 69.298-41.142 109.469-46.846 0.364-0.121 0.85-0.121 1.214-0.243 0.607-0.121 1.335-0.243 1.942-0.243 0.243-0.121 0.607-0.121 0.85-0.121 0.485-0.121 1.092-0.121 1.578-0.243l-0.121-180.831zM514.488 211.543c-1.578 0-3.034 0-4.49 0.121h-0.607c-1.335 0.121-2.67 0.121-3.884 0.243h-0.121c-92.6 4.733-166.51 81.677-166.51 175.369 0 1.578 0 3.034 0.121 4.49v0.607c0.121 1.335 0.121 2.67 0.243 3.884v0.243c4.733 92.6 81.677 166.51 175.491 166.51 96.848 0 175.612-78.886 175.612-175.734-0.243-96.969-79.007-175.734-175.855-175.734zM804.91 96.855c-70.997-70.997-163.476-112.746-262.751-119.3v180.224c114.445 13.714 203.404 111.411 203.404 229.376s-88.959 215.662-203.404 229.376v180.345c99.275-6.554 191.753-48.302 262.751-119.3 77.551-77.551 120.271-180.709 120.271-290.422-0.121-109.712-42.72-212.749-120.271-290.3z" />
<glyph unicode="&#xe6ec;" glyph-name="remember-no" d="M512 864c-264.66 0-480-215.34-480-480s215.34-480 480-480 480 215.34 480 480-215.34 480-480 480zM512-29.16c-227.82 0-413.22 185.34-413.22 413.16s185.4 413.16 413.22 413.16 413.22-185.34 413.22-413.16-185.4-413.16-413.22-413.16z" />
<glyph unicode="&#xe6ed;" glyph-name="open-icon" d="M820.695-61.932h-617.453c-75.781 0-137.211 61.43-137.211 137.21v617.454c0 75.781 61.43 137.212 137.21 137.212h171.516c18.945 0 34.305-15.36 34.305-34.304s-15.36-34.304-34.305-34.304h-171.515c-37.888 0-68.604-30.716-68.604-68.604v-617.452c0-37.892 30.716-68.608 68.604-68.608h617.453c37.892 0 68.607 30.716 68.607 68.608v171.51c0 18.949 15.36 34.304 34.304 34.304s34.3-15.355 34.3-34.3v-171.515c-0.001-75.78-61.431-137.21-137.211-137.21zM957.905 520.838c0-18.967-15.377-34.345-34.346-34.345-18.968 0-34.345 15.377-34.345 34.346v69.78c0 0.39 0.017 0.779 0.030 1.166l0.057 119.47-499.96-499.573c-13.792-13.143-35.612-12.97-49.157 0.575-13.547 13.547-13.718 35.368-0.573 49.16l-0.154 0.154 499.769 499.764-125.2-0.060c-0.3-0.008-0.595-0.023-0.895-0.023h-69.78c-18.968 0-34.345 15.376-34.345 34.345s15.377 34.344 34.345 34.344l245.952 0.002c37.888 0 68.603-30.716 68.603-68.608v-240.496z" />
</font>
</defs>
</svg>
